<?xml version="1.0" encoding="UTF-8" standalone="no"?>
<!-- Created with Inkscape (http://www.inkscape.org/) -->

<svg
   width="211.55537mm"
   height="76.357727mm"
   viewBox="0 0 211.55537 76.357727"
   version="1.1"
   id="svg156777"
   inkscape:version="1.1.1 (3bf5ae0d25, 2021-09-20)"
   sodipodi:docname="mobile contact us.svg"
   xmlns:inkscape="http://www.inkscape.org/namespaces/inkscape"
   xmlns:sodipodi="http://sodipodi.sourceforge.net/DTD/sodipodi-0.dtd"
   xmlns="http://www.w3.org/2000/svg"
   xmlns:svg="http://www.w3.org/2000/svg">
  <sodipodi:namedview
     id="namedview156779"
     pagecolor="#ffffff"
     bordercolor="#666666"
     borderopacity="1.0"
     inkscape:pageshadow="2"
     inkscape:pageopacity="0.0"
     inkscape:pagecheckerboard="0"
     inkscape:document-units="mm"
     showgrid="false"
     fit-margin-top="0"
     fit-margin-left="0"
     fit-margin-right="0"
     fit-margin-bottom="0"
     inkscape:zoom="0.74742565"
     inkscape:cx="341.17106"
     inkscape:cy="90.978949"
     inkscape:window-width="1920"
     inkscape:window-height="1011"
     inkscape:window-x="0"
     inkscape:window-y="32"
     inkscape:window-maximized="1"
     inkscape:current-layer="layer1" />
  <defs
     id="defs156774" />
  <g
     inkscape:label="Layer 1"
     inkscape:groupmode="layer"
     id="layer1"
     transform="translate(2.4117867,-124.30385)">
    <path
       style="fill:#ffffff;stroke:#ffffff;stroke-width:0.264583px;stroke-linecap:butt;stroke-linejoin:miter;stroke-opacity:1"
       d="M -0.39179143,125.92438 206.98974,126.73479 205.22253,197.03309 6.5158443,193.37861 Z"
       id="path156999" />
    <g
       id="g123946"
       transform="matrix(0.26458333,0,0,0.26458333,1111.9895,388.7154)">
      <path
         style="fill:#000000;stroke-width:0.930999"
         d="m -3936.1335,-710.92734 c -0.2019,-0.3028 -37.175,-0.67911 -82,-0.97927 -85.1914,-0.5705 -96.1353,-0.95317 -115,-4.02098 -8.4629,-1.37615 -18.0099,-2.0595 -36.1496,-2.58719 -23.5593,-0.68534 -29.7859,-1.45823 -28.3194,-3.51496 0.3229,-0.4528 0.223,-1.3108 -0.222,-1.9067 -0.4449,-0.59589 -0.8395,-6.349 -0.8768,-12.78469 -0.1031,-17.77687 -2.1442,-46.39594 -3.8636,-54.17241 -7.6942,-132.66661 -4.5614,-68.9876 -5.5516,-97.312 0.9044,-10.35048 -0.6055,-37.33077 -3.0685,-54.83306 -0.6833,-4.85584 -0.6763,-9.45269 0.022,-14.27883 1.3668,-9.44802 1.3108,-26.0838 -0.1015,-30.16961 -1.3924,-4.02826 -0.5424,-7.25824 2.635,-10.01228 2.276,-1.97274 2.9239,-2.07233 10.7094,-1.64606 19.7893,1.08345 37.536,1.56051 54.7867,1.47271 87.6532,-0.4463 130.4625,-0.0641 168.5,1.50287 27.1262,1.11769 83.0089,1.1592 96.5,0.0719 11.9651,-0.96453 262.0191,-1.44861 314,-0.60786 18.425,0.298 57.2726,0.1698 86.3279,-0.28481 59.8916,-0.93714 57.9363,-1.10668 61.4509,5.32831 1.7601,3.22261 2.2441,6.78169 3.2842,24.1485 1.3223,22.08105 0.9259,36.4773 -1.6351,59.37299 -1.1739,10.49463 -1.4668,18.47626 -1.0178,27.73628 -5.804,79.19854 1.2646,58.41705 -11.4275,155.93591 -1.8724,5.93374 -6.6174,7.6037 -11.6715,4.53537 -1.632,-0.99079 -11.2222,-2.33985 -17.0716,-1.70322 -13.1109,1.42686 -51.1159,2.43819 -62.0504,1.65109 -81.4469,-5.86258 -77.2046,-2.67093 -104.689,-2.41706 -14.85,0.13712 -36.9,0.56729 -49,0.95595 -12.1,0.38856 -26.2962,0.60231 -31.5471,0.47489 -5.2508,-0.12741 -16.9508,0.39091 -26,1.15175 -9.0491,0.76084 -22.9779,1.55124 -30.9529,1.7564 -7.975,0.20516 -20.575,0.95716 -28,1.67111 -22.1686,2.13154 -77.1997,4.71361 -113.5,5.32554 -18.7,0.31524 -34.2981,0.44252 -34.5,0.13972 z m -109.4738,-5.80486 c 8.3539,0.14716 58.2069,-1.344 107.9469,-1.07365 27.6276,0.15012 87.8572,-1.05416 99.5269,-1.98999 3.025,-0.24261 12.475,-1.02278 21,-1.7337 19.1619,-1.59786 51.0751,-3.55431 77.5,-4.75105 11,-0.49812 29.275,-1.56606 45.5,-2.37318 51.6829,-2.57107 123.5635,-1.83207 157.5,1.67102 12.8284,1.32415 62.0377,1.18391 78.5,-0.22379 18.1784,-1.55454 21.3767,-1.26348 25.5128,2.32152 2.3318,2.02111 3.6959,0 2.7207,-4.03528 3.2008,-123.87658 5.8064,13.42667 7.2823,-151.48441 0.1776,-22.21901 0.7391,-35.07157 1.9501,-44.63807 1.9644,-15.51836 3.0215,-63.46487 1.4552,-66.00161 -0.8394,-1.35943 -1.8222,-1.50106 -7.1966,-1.0376 -3.4235,0.29522 -6.856,0.97077 -7.6278,1.50122 -1.6011,1.10027 -14.049,1.25325 -108.0967,1.32814 -72.4864,0.0581 -90.7763,-0.16841 -93.25,-1.15288 -1.1669,-0.46441 -1.75,-0.33179 -1.75,0.39785 0,0.8619 -3.0269,0.94988 -14.25,0.41439 -7.8375,-0.37392 -17.625,-0.59529 -21.75,-0.49188 -12.073,0.30267 -42.5054,0.13252 -55.5,-0.31039 -13.9254,-0.47455 -11.4962,-0.45791 -45,-0.30701 -14.3,0.0641 -40.471,0.0321 -58.1579,-0.0719 -17.6869,-0.10409 -37.2619,0.22995 -43.5,0.7423 -14.0371,1.15296 -83.1979,0.49639 -107.8421,-1.02373 -17.9011,-1.10417 -28.9274,-1.2347 -67.5,-0.79881 -31.6371,0.35754 -130.9865,-0.51719 -144.25,-1.27006 -11.9389,-0.67763 -12.4622,-0.50766 -10.1195,3.28658 2.3364,3.78383 0.368,19.60038 1.2052,43.10439 3.009,47.90083 3.8393,48.70352 7.0626,153.24009 0.1771,1.90687 0.6864,4.21366 1.1318,5.1261 0.5734,1.17463 0.4682,1.476 -0.3601,1.03231 -0.7654,-0.41007 -1.1648,0.065 -1.1549,1.37459 0.021,2.77311 2.4825,8.6486 3.3195,7.92313 0.3775,-0.32712 0.3885,0.69574 0.024,2.27298 -0.5156,2.23477 -0.2359,3.17745 1.2673,4.27061 1.5878,1.1547 1.8179,2.09262 1.3015,5.30318 -0.3451,2.14522 -0.6951,3.04587 -0.7777,2.00143 -0.083,-1.04453 -0.671,-2.17808 -1.3077,-2.51915 -0.8116,-0.43476 -0.9651,0 -0.5136,1.46569 0.3541,1.14716 0.65,2.59629 0.6575,3.22036 0.01,0.62398 0.4637,0.89354 1.0136,0.59884 0.55,-0.29461 1,0.25517 1,1.22178 0,1.2041 -0.4711,1.60082 -1.4961,1.25992 -1.2167,-0.40469 -1.3738,0.0451 -0.8414,2.4108 0.36,1.59961 1.0332,3.03834 1.4961,3.1973 0.4628,0.15888 0.8414,0.66949 0.8414,1.13459 0,0.4651 -0.45,0.60465 -1,0.30995 -0.5499,-0.29461 -1,0.23559 -1,1.1781 0,0.9426 -0.2412,2.25869 -0.536,2.92462 -0.2948,0.66584 0.6579,2.32733 2.1171,3.69204 2.5314,2.36756 2.5688,2.53467 0.8147,3.64637 -1.0111,0.64088 -2.3421,0.99764 -2.9577,0.79283 -0.6157,-0.20473 -1.7536,-0.0243 -2.5287,0.40104 -1.0257,0.56279 -0.6607,0.77688 1.3406,0.7865 2.5057,0.0121 2.7514,0.30215 2.7654,3.26361 0.02,4.15558 0.6373,4.9166 5.3806,6.62862 3.6795,1.32805 3.8045,1.49377 2.25,2.9826 -0.9053,0.86711 -1.6453,1.93582 -1.6446,2.37501 8e-4,0.45643 8.0322,0.82177 18.75,0.85272 13.7099,0.0399 22.5112,0.54553 32.7486,1.88234 7.7,1.00535 19.625,2.0829 26.5,2.39442 6.875,0.3116 14.3,0.88236 16.5,1.26841 5.6787,0.99651 18.1676,-0.4029 27.7016,-0.23495 z m -26.0262,-13.13581 c -5.3455,-2.73307 -6.5001,-4.40158 -6.4962,-9.38787 0.01,-5.83467 2.1666,-9.30699 8.1245,-13.04783 5.0285,-3.15726 10.1239,-4.59902 14.8717,-4.20786 2.4752,0.20395 3.5037,0.71543 3.5126,1.74696 0.01,0.80227 0.9896,2.36243 2.1836,3.46703 3.5096,3.24679 5.2911,6.94828 5.2977,11.00705 0.01,3.98345 -2.8203,9.06084 -5.5499,9.96877 -3.3827,1.12505 -19.9604,1.46785 -21.944,0.45375 z m 15.0831,-2.62793 c 0,10.23867 12.2056,-11.61794 4.2177,-18.06819 -4.0174,-3.2441 -12.3132,-1.54266 -18.4613,3.78626 -7.6309,6.61415 -6.7845,12.55015 2.0344,14.26789 5.7589,1.12176 12.2092,-5.18827 12.2092,0.0139 z m 192.5476,0.95326 c -5.0997,-7.26846 -2.8487,-18.61702 4.6054,-23.21751 3.4724,-2.14315 5.9765,-2.44773 9.579,-1.16519 1.5483,0.55126 3.5733,1.01082 4.5,1.0213 2.9446,0.0329 9.9828,3.23466 11.1042,5.05087 0.5944,0.96262 1.0807,3.69612 1.0807,6.0745 0,3.35609 -0.5637,4.9049 -2.5176,6.9176 -4.4083,4.54095 -10.5394,7.15538 -18.8529,7.63614 l -7.4877,0.54866 z m 20.2438,-4.02522 c 3.349,-2.15633 7.6255,-7.99308 7.6255,-10.40778 0,-2.8766 -3.5345,-4.41133 -11.7395,-5.09732 l -7.2394,-0.60526 -4.0106,3.47614 c -3.6937,3.20146 -4.0105,3.84719 -4.0105,8.17197 0,2.58268 0.5625,5.20298 1.25,5.82271 1.8591,1.67614 14.9325,0.69479 18.1245,-1.36046 z m -169.6618,4.8821 c -4.5066,-0.68119 -9.2425,-4.34107 -10.754,-8.31074 -0.8956,-2.35221 -0.7455,-3.52624 0.8508,-6.65428 2.3758,-4.65519 5.8487,-6.8844 14.608,-9.37677 8.0232,-2.28287 12.0456,-1.66548 12.1396,1.86327 0.031,1.17793 0.8594,3.19938 1.84,4.49224 0.9807,1.29277 2.0156,3.85378 2.3,5.69114 0.4468,2.88743 0.096,3.70565 -2.5868,6.0309 -1.7071,1.47956 -4.4553,2.9475 -6.107,3.26187 -1.6518,0.31446 -3.0033,0.89268 -3.0033,1.28489 0,1.29485 -5.4345,2.29986 -9.2873,1.71748 z m 11.4861,-5.81864 c 2.615,-2.42259 5.8012,-7.24194 5.8012,-8.77471 0,-0.46389 -1.165,-2.04339 -2.5889,-3.51012 -3.214,-3.31076 -6.9011,-3.47145 -13.9111,-0.60612 -7.1117,2.90685 -9.8797,5.73551 -9.002,9.19934 0.949,3.74509 5.5641,6.06774 12.0649,6.07191 4.2354,0 5.4835,-0.38632 7.6359,-2.3803 z m 191.0662,4.33163 c -5.2953,-4.28751 -6.5467,-12.10931 -2.7547,-17.21833 1.9893,-2.68011 9.9141,-6.43274 13.8558,-6.56119 10.8274,-0.35277 18.6987,13.14638 11.5249,19.76513 -3.1248,2.88301 -12.04,6.40014 -16.2233,6.40014 -2.3908,0 -4.3645,-0.73544 -6.4027,-2.38575 z m 11.3413,-2.92843 c 5.833,-1.2731 9.3937,-5.10278 9.3937,-10.10346 0,-4.36318 -2.5755,-6.25132 -8.5267,-6.25132 -4.8137,0 -12.9054,4.01777 -13.9751,6.93909 -1.0712,2.92523 0.3562,7.6091 2.7642,9.07098 2.607,1.5827 4.3979,1.64242 10.3439,0.34471 z m -327.2182,3.64584 c -2.5414,-0.94771 -6.5628,-5.18625 -5.8581,-6.17452 0.2764,-0.3877 0.094,-0.92362 -0.4043,-1.19084 -1.4091,-0.75486 -0.3161,-11.59212 1.5045,-14.91761 1.6412,-2.99777 4.5666,-5.0591 5.7383,-4.04343 0.3473,0.30102 0.6315,0.0923 0.6315,-0.46389 0,-0.61791 1.7192,-1.01116 4.4206,-1.01116 4.1042,0 4.4679,0.18705 5.0832,2.61527 0.4036,1.59258 1.7057,3.08765 3.3295,3.8231 3.454,1.56424 7.4898,5.35986 9.6622,9.08727 1.4458,2.48075 1.5382,3.49468 0.5728,6.28755 -1.6609,4.80505 -4.761,6.20426 -14.4338,6.51473 -4.474,0.14363 -9.0848,-0.0933 -10.2464,-0.52647 z m 19.66,-7.47041 c 2.6084,-2.04599 2.4594,-4.07368 -0.525,-7.14782 -2.9172,-3.00496 -11.8097,-6.56223 -14.5321,-5.81335 -5.3309,1.46656 -8.8693,9.31471 -5.741,12.73355 1.7441,1.90609 3.128,2.13917 11.4981,1.9366 5.408,-0.13096 7.8635,-0.58211 9.3,-1.70898 z m 144.3632,6.99855 c -4.0493,-1.47574 -9.076,-6.65636 -10.5245,-10.84688 -1.7319,-5.01047 0.044,-9.48728 5.3158,-13.39826 2.2866,-1.69651 4.5586,-3.08445 5.0488,-3.08445 0.4903,0 1.6139,-0.62623 2.4968,-1.3915 1.2567,-1.08925 2.705,-1.26503 6.6676,-0.80946 8.608,0.98975 15.0819,5.78059 16.2513,12.02627 0.9959,5.31948 -3.1452,9.83373 -11.2312,12.24314 -1.9502,0.58117 -3.5594,1.41161 -3.5759,1.84542 -0.1102,2.89428 -6.3144,4.92249 -10.4487,3.41572 z m 6.4246,-5.6536 c 1.2166,-1.42634 3.9446,-3.35939 6.0623,-4.29583 4.5898,-2.02952 9.1018,-6.42407 9.1018,-8.86478 0,-2.84132 -5.6436,-6.78186 -9.7128,-6.78186 -4.7253,0 -15.7089,4.66238 -18.2391,7.74232 -6.6721,8.12153 5.9749,20.18724 12.7878,12.20015 z m 244.1591,5.37477 c -9.9085,-4.37783 -9.4936,-15.30731 0.8545,-22.50999 3.597,-2.50363 4.7805,-2.83109 10.3558,-2.86533 7.1437,-0.0442 11.3304,0.86572 16.3428,3.55085 5.5556,2.97602 7.0317,7.16792 3.8923,11.05291 -1.3838,1.71228 -11.4501,7.87329 -16.9872,10.39668 -3.8933,1.77434 -10.8806,1.9555 -14.4582,0.37488 z m 18.6834,-6.76003 c 7.2098,-4.4593 11.2381,-7.90432 11.29,-9.65534 0.042,-1.42625 -6.821,-4.38857 -11.7505,-5.07184 -2.529,-0.35052 -6.069,-0.0199 -9.7721,0.91348 -12.8937,3.24887 -17.7927,13.65899 -8.1951,17.41422 5.5059,2.15424 10.7939,1.12106 18.4277,-3.60052 z m -219.5349,5.25022 c -5.7229,-4.17379 -6.5412,-12.65728 -1.8097,-18.76013 2.5604,-3.30243 11.9701,-8.51434 15.372,-8.51434 2.4021,0 2.7834,0.22597 10.6989,6.34017 4.5276,3.49728 4.9393,4.1496 5.354,8.48461 0.5975,6.24534 -1.2045,8.10237 -9.652,9.94632 -3.5163,0.76751 -7.3136,2.13872 -8.4385,3.04709 -2.9016,2.34302 -7.8893,2.10778 -11.5247,-0.54372 z m 15.8495,-4.30302 c 8.2008,-2.78568 11.007,-5.05641 11.007,-8.90664 0,-5.99364 -9.6423,-10.57316 -16.3898,-7.78428 -7.7925,3.22088 -13.4841,9.81059 -12.036,13.93523 1.9141,5.45156 7.0774,6.26848 17.4188,2.75569 z m 137.507,4.28282 c -0.55,-0.12828 -2.2514,-0.47273 -3.781,-0.7656 -3.4607,-0.66264 -6.7102,-5.06439 -6.7152,-9.09655 -0.01,-6.29145 6.177,-13.4924 14.9027,-17.35077 7.4784,-3.30686 8.9635,-3.10421 14.6696,2.00212 8.3889,7.507 8.4941,13.43207 0.3557,20.03027 -4.3958,3.56394 -5.4145,3.99186 -9.1879,3.85985 -2.3341,-0.0815 -5.3689,0.23455 -6.7439,0.70268 -1.375,0.46805 -2.95,0.7462 -3.5,0.618 z m 11.4655,-5.65993 c 3.9696,-0.73787 5.6506,-1.60792 7.7785,-4.02601 3.2311,-3.67176 3.4871,-8.41874 0.6371,-11.81565 -2.9996,-3.57529 -4.9369,-3.60979 -12.7354,-0.22718 -7.4576,3.23474 -12.7886,7.79927 -13.9854,11.9747 -1.3148,4.58672 6.3877,6.30949 18.3052,4.09414 z m -430.0002,1.11526 c -4.5404,-3.93543 -5.8176,-8.29046 -4.0814,-13.91703 1.6931,-5.48684 4.4896,-8.44188 9.5854,-10.12859 5.3418,-1.76827 9.5307,-1.1644 9.5307,1.37399 0,1.02485 0.96,2.05482 2.3387,2.50909 6.7148,2.21283 9.8368,10.42355 5.6977,14.98443 -2.6692,2.94126 -13.5877,8.47127 -16.7257,8.47127 -1.6146,0 -3.9359,-1.20479 -6.3454,-3.29316 z m 14.8643,-5.01377 c 4.7025,-3.68849 6.1704,-5.40528 6.1704,-7.21637 0,-3.87762 -6.202,-7.87918 -12.2117,-7.87918 -13.0917,0 -14.7614,19.42649 -1.7087,19.88049 0.8688,0.0303 4.3563,-2.12304 7.75,-4.78494 z m 502.9288,5.92334 c -3.3474,-3.05038 -4.2458,-6.27802 -2.8024,-10.06878 1.2391,-3.25425 9.0423,-10.08335 11.5217,-10.08335 0.8556,0 1.5223,-0.7592 1.5223,-1.73352 0,-1.41793 0.6667,-1.73352 3.6622,-1.73352 7.6763,0 16.3378,7.23787 16.3378,13.65258 0,4.27034 -3.1988,6.73436 -12.5497,9.66713 -10.7782,3.38036 -14.2464,3.43904 -17.6919,0.29946 z m 15.6193,-4.53982 c 8.0901,-2.99083 10.6223,-4.76336 10.6223,-7.4354 0,-2.36911 -4.8181,-6.08066 -8.903,-6.85831 -3.6541,-0.69566 -7.7505,1.03699 -13.7113,5.7993 -5.0815,4.0599 -5.8457,7.49903 -2.1632,9.73474 3.1756,1.92785 6.334,1.65118 14.1552,-1.24033 z m 120.7626,4.57805 c -3.6423,-3.157 -5.3206,-7.95581 -4.0865,-11.68529 2.325,-7.02682 11.465,-14.33264 19.0313,-15.21231 3.9508,-0.4593 4.4821,0.0225 4.0491,3.67358 -0.056,0.47672 1.8553,1.56649 4.2486,2.42181 5.4664,1.95342 8.5563,4.76882 9.5888,8.73667 1.9697,7.56992 -7.1853,13.59164 -21.6655,14.25038 -8.015,0.36464 -8.2855,0.31168 -11.1658,-2.18484 z m 18.5624,-4.10948 c 7.6032,-2.95746 12.2168,-6.82286 10.6739,-8.94304 -1.3325,-1.83094 -14.3184,-8.81511 -16.4506,-8.84753 -2.0042,-0.0303 -10.1791,4.98205 -12.7159,7.79693 -4.3094,4.78156 -3.9296,8.60033 1.1292,11.35523 4.0587,2.21015 9.2218,1.80529 17.3634,-1.36159 z m -70.6772,3.00982 c 0,-4.63982 -3.7518,-6.6398 -0.8712,-12.76848 0.626,-1.33203 1.1849,-3.1947 1.242,-4.13938 0.2888,-4.78243 20.3707,-7.2214 27.4372,-3.33234 2.8867,1.58877 5.1665,6.13778 5.1665,10.30923 0,2.44391 -0.7851,3.82873 -3.5095,6.19013 -3.0656,2.65713 -3.94,2.97185 -6.913,2.48846 -2.3088,-0.37548 -5.12,0.0121 -8.7405,1.2048 -6.7848,2.23511 -13.8115,3.41112 -13.8115,0.0477 z m 15.3072,-3.15717 c 9.872,-1.57048 13.3054,-3.45299 14.2726,-7.82579 0.468,-2.1161 0.1008,-3.16193 -1.6399,-4.6707 -2.0735,-1.79731 -2.8665,-1.90591 -10.5026,-1.43882 -4.5428,0.27788 -9.8029,1.06403 -11.6889,1.74713 -6.3365,2.29483 -8.6316,10.90417 -3.3955,12.73719 2.9441,1.03066 3.0537,1.02598 12.9543,-0.54901 z m 97.539,3.91706 c -9.4461,-1.24103 -12.8717,-4.56011 -12.8717,-12.47188 0,-6.57783 2.3307,-10.04252 9.2499,-13.75034 3.6316,-1.94605 6.2979,-2.62342 11.6279,-2.954 6.1694,-0.38259 7.0312,-0.24218 7.9839,1.30074 0.5874,0.95127 0.8529,1.91606 0.59,2.14384 -0.2629,0.22787 0.203,1.82678 1.0352,3.55319 0.8322,1.72641 1.5117,4.22406 1.5099,5.55029 0,2.94941 -6.5336,11.68027 -11.1384,14.89299 -2.9737,2.07476 -3.8885,2.27351 -7.9867,1.73517 z m 6.6738,-5.90081 c 1.8203,-1.38525 3.1234,-2.6801 2.8958,-2.87729 -0.2276,-0.19727 1.1095,-1.80017 2.9713,-3.56194 4.3046,-4.07334 4.7422,-5.13355 3.4474,-8.35296 -1.0052,-2.49929 -1.3224,-2.62463 -6.6421,-2.62463 -6.766,0 -12.872,2.34285 -17.1739,6.58971 -1.6742,1.65273 -3.044,3.8797 -3.044,4.94884 0,4.08781 5.9465,8.27807 11.868,8.36292 1.3024,0.0191 3.8573,-1.09948 5.6775,-2.48465 z m -155.1564,3.02915 c -3.0219,-2.61922 -3.3891,-3.44866 -3.3891,-7.65504 0,-6.50441 3.2212,-11.63164 8.96,-14.26208 2.395,-1.09775 5.6401,-1.99588 7.2113,-1.99588 8.3951,0 17.9722,11.75584 13.5787,16.66777 -1.6112,1.80129 -8.4249,2.71125 -16.1109,7.71553 l -6.861,2.46715 z m 13.5939,-4.48686 c 5.7549,-1.48138 11.017,-5.27397 11.017,-7.94055 0,-3.94185 -9.2442,-7.86298 -11.9284,-5.05962 -0.7241,0.75616 -2.6558,1.37485 -4.2928,1.37485 -4.3244,0 -8.7788,4.37116 -8.7788,8.61481 0,1.77694 0.3,3.49087 0.6667,3.80871 1.174,1.01757 7.8065,0.61999 13.3163,-0.7982 z m -592.904,-1.72988 c 1.0108,0 0.2849,-1.21511 0.6041,-0.52361 0.2889,0.62563 0.2534,1.37321 -0.079,1.66123 -0.3323,0.28803 -1.44,-1.13762 -0.5252,-1.13762 z m 454.8024,-21.55507 c 0,-0.31668 -8.3952,-0.45791 -18.1241,-0.55672 -11.7112,-0.11883 -17.4762,-0.47811 -17.0591,-1.06299 0.4065,-0.57016 -0.049,-0.62849 -1.2841,-0.16451 -2.0439,0.76751 -56.7939,0.67 -62.0354,-0.11052 -2.8564,-0.4254 -109.5783,-1.95064 -129.3787,-1.84905 -68.7516,0.35268 -170.038,0.0711 -175.2813,-0.48686 -8.9287,-0.95058 -10.2545,-2.526 -10.1306,-12.03893 0.05,-3.87216 0.6647,-7.69794 1.437,-8.94876 -0.5765,-54.87209 -2.2944,-59.78059 -2.9206,-91.66515 0.5149,-10.48778 -0.9366,-26.88504 -0.6168,-35.94267 0.3198,-9.05762 0.8304,-17.83356 1.1348,-19.50207 l 0.5533,-3.03365 20.6621,0.078 c 11.3642,0.0425 21.7871,0.33145 23.1621,0.64123 5.1636,1.16362 36.3618,2.40508 60,2.38757 13.475,-0.0104 42.5,-0.59728 64.5,-1.30525 102.1717,-3.28796 204.8756,-4.35182 261,-2.70377 18.89,0.55473 65.2001,3.67298 66.7316,4.49336 1.1381,0.60968 132.4878,0.56201 133.6274,-0.0485 1.3153,-0.70459 48.3641,-0.88592 50.7835,-0.19572 4.4263,1.2627 4.7226,3.88213 4.0244,35.57533 -5.1951,59.1139 -5.3592,60.60876 -8.4599,91.69479 -0.9028,16.39361 -2.8539,17.87638 -4.8836,25.20118 -1.387,5.00554 -3.1894,9.75243 -4.0053,10.54854 -2.1047,2.05387 -8.9199,3.14729 -23.3181,3.74128 -6.875,0.28369 -17,1.08137 -22.5,1.7727 -22.6033,2.84106 -35.2511,3.2116 -120.5918,3.53264 -47.6254,0.17908 -87.0268,0.26539 -87.0268,-0.0511 z m 114.6186,-5.71896 c 0,0 107.9801,-2.90078 128.8865,-5.97318 6.5781,-0.96679 6.872,-1.11101 7.3078,-3.58622 0.1702,-0.96652 1.027,-2.96006 1.904,-4.43 1.6819,-2.81922 5.2354,-10.99889 7.8792,-50.69826 0.3254,-17.04135 4.5138,-45.14892 4.5138,-45.14892 0.5966,-10.48778 0.9552,-26.86951 0.7968,-36.40386 l -0.2881,-17.33517 -5,0.24131 c -2.75,0.1327 -9.95,0.71776 -16,1.30013 -7.6231,0.7338 -32.6429,1.05884 -81.5,1.05884 -73.5943,0 -94.2598,-0.48756 -108.1704,-2.55174 -10.1579,-1.50738 -26.8108,-2.82191 -44.8296,-3.5388 -28.45,-1.1319 -96.7027,-1.11414 -133,0.0347 -20.625,0.65275 -46.95,1.43119 -58.5,1.72987 -11.55,0.29869 -26.175,0.89233 -32.5,1.31912 -22.9323,1.5476 -48.3158,2.13908 -89.5,2.08542 -36.1447,-0.0468 -44.4397,-0.30804 -59.5,-1.87193 -12.9867,-1.34851 -21.2395,-1.72061 -32,-1.44281 l -14.5,0.37444 -0.6264,15.36564 c 0.6898,20.73212 0,0 2.0454,140.54522 -1.567,2.5377 -1.3317,2.72968 5.2276,4.26506 12.2666,2.87122 48.0732,3.77005 172.3534,4.32643 66.55,0.29799 127.3,0.79741 135,1.10997 16.7253,0.67893 210,-0.77515 210,-0.77515 z m -407,-11.35757 c -43.0861,-2.96958 -25.025,-0.84631 -27.5,-1.14985 -3.867,-0.4742 -27.4433,-1.47366 -58,-2.45882 -10.5417,-0.33985 -14.5336,0.57802 -15.3586,-2.2711 0,-5.38287 -5.3701,-37.17146 -5.6413,-94.20378 0.7136,-5.00553 -0.5842,-20.54053 -0.2946,-28.53803 0.4691,-12.95613 0.6941,-14.42035 2.0645,-13.43476 1.1936,0.85844 11.6355,1.12263 46.634,1.17992 33.8692,0.0555 46.0621,0.35121 48.9767,1.18807 2.7933,0.80201 7.1365,0.95283 15.5,0.53808 6.3906,-0.3168 24.8943,-0.1795 41.1193,0.3051 41.2359,1.23184 66.3368,1.14612 81.5,-0.27849 9.7385,-0.91486 28.6358,-1.22516 75.3229,-1.23695 35.2446,-0.009 72.0029,-0.46831 84.6023,-1.05753 30.0962,-1.40753 110.0993,-0.62927 141.5748,1.37728 25.7574,1.6419 33.4182,1.71878 83.1085,0.83347 32.0597,-0.57128 33.6417,-0.52534 34.3304,0.99608 0.3971,0.87716 0,20.49953 -0.049,37.40756 -5.7707,44.57636 -2.3491,29.61542 -15.4357,90.61058 -1.3196,2.13717 -3.2346,2.51793 -14.5652,2.89584 -5.4387,0.18141 -10.5636,0.54424 -11.3886,0.80634 -3.1965,1.01541 -24.7666,2.33306 -53.5,3.2682 -56.6966,1.84516 -63.0926,1.97448 -98,1.98133 -19.25,0 -46.7,0.0121 -61,0.0182 -29.7959,0.013 -50.5151,-0.0555 -122.5,-0.40538 -32.2285,-0.15654 -56.9259,0.12022 -66,0.7396 -17.8356,1.21736 -105.5,0.88912 -105.5,0.88912 z m 97,-3.42465 c 15.9054,-1.40389 185.0877,-1.93652 226,-0.71153 29.9202,0.89597 40.6604,0.84492 74,-0.35155 21.45,-0.76977 47.325,-1.62812 57.5,-1.90748 23.2804,-0.63923 65.6146,-3.6364 71.2423,-5.04375 4.2511,-1.06317 4.259,-1.07288 5.0624,-6.23096 12.305,-68.80079 9.2469,-55.71323 14.6029,-117.20766 -1.1957,-1.03777 -11.9405,-1.05658 -53.4076,-0.0932 -30.6086,0.71109 -42.2265,0.39048 -83.5,-2.3048 -18.6336,-1.21675 -87.6866,-1.18234 -125.8999,0.0624 -41.2295,1.34339 -194.5055,2.02579 -245.6001,1.09342 -33.7347,-0.61557 -46.2517,-1.13251 -50,-2.06479 -5.3343,-1.32684 -10.0549,-1.2998 -51,0.29253 -26.9843,1.04938 -35.8047,1.66721 -37.6098,2.63451 -0.9254,0.49587 -1.429,2.56647 -1.5062,6.19351 -0.6143,109.69386 6.427,121.26513 6.427,121.26513 v 0 l 4.3447,0.49232 c 2.3896,0.27078 18.9697,1.12098 36.8447,1.88945 17.875,0.76838 12.9226,0.13091 54,2.42918 24.2344,1.35591 83.3333,0.90169 98.5,-0.43702 z m 469.6914,-3.59713 c -3.2546,-3.02793 -4.409,-8.61038 -2.7617,-13.35458 2.0636,-5.94345 5.6922,-9.47818 12.995,-12.65884 6.2492,-2.72188 6.64,-2.78186 10.2852,-1.57941 3.7795,1.24692 3.7897,1.26374 4.0609,6.68679 0.1496,2.99014 -0.2114,6.99257 -0.8022,8.89415 -1.8155,5.84404 -10.0642,11.73149 -18.6248,13.29322 -2.4834,0.45314 -3.5817,0.17994 -5.1524,-1.28133 z m 8.7059,-4.14579 c -0.8299,-0.58092 2.9806,-2.46446 5.4408,-3.56125 3.4717,-1.5476 4.8302,-2.80423 6.0676,-5.61261 2.0195,-4.58342 2.0273,-7.82857 0.023,-9.5659 -1.9381,-1.67978 -1.8605,-1.68064 -7.3952,0.0806 -11.1244,3.54002 -16.2827,10.65177 -13.0581,18.00301 0.7897,1.80035 1.6391,2.22332 4.4648,2.22332 2.3426,0 5.4701,-0.85807 4.4572,-1.5671 z m -742.8183,11.66179 c 1.0108,0 0.2849,-1.21511 0.6041,-0.52361 0.2889,0.62563 0.2534,1.37321 -0.079,1.66123 -0.3323,0.28803 -1.44,-1.13762 -0.5252,-1.13762 z m 741.0186,-59.26095 c -1.3213,-0.58888 -3.7452,-2.51473 -5.3863,-4.2798 -5.4995,-5.91432 -3.5584,-12.7501 5.3544,-18.8565 5.0409,-3.45369 11.5861,-5.36437 12.7938,-3.73487 0.3523,0.47533 1.6159,1.12792 2.8081,1.45018 3.3219,0.89796 7.3751,3.96594 8.4366,6.38584 0.6738,1.53616 0.5042,3.52034 -0.5765,6.74234 -3.2949,9.82393 -15.0873,16.01094 -23.4301,12.29281 z m 13.9643,-5.55601 c 5.0967,-3.99099 6.9381,-7.03695 6.9381,-11.47615 0,-4.08304 -1.2376,-4.89675 -8.764,-5.76212 -5.982,-0.68786 -9.6946,0.87343 -15.6393,6.57679 -4.004,3.84139 -4.2796,4.98733 -2.0841,8.66724 1.9599,3.28502 5.9263,5.10139 11.2345,5.14473 3.5174,0.0286 4.946,-0.51251 8.3148,-3.15049 z m -10.6208,-43.62959 c 1.8486,-1.29624 1.7686,-1.36116 -1.6774,-1.36116 -9.148,0 -10.4334,-12.89546 -2.2162,-22.2334 3.7683,-4.28222 12.4525,-7.28866 12.4525,-4.31108 0,0.65544 1.2375,1.40727 2.75,1.67068 3.7512,0.65336 9.3942,4.07385 11.1217,6.74147 4.4308,6.84228 -7.7395,18.90132 -20.6001,20.41173 -3.5552,0.41752 -3.6602,0.36482 -1.8305,-0.91824 z m 4.7754,-3.64628 c 4.254,-0.60959 10.0919,-4.60691 14.1611,-9.69634 2.2992,-2.87582 2.5887,-3.78878 1.6719,-5.27362 -1.5193,-2.46056 -5.7756,-4.2167 -12.4031,-5.11752 -5.2524,-0.71395 -5.7127,-0.62814 -7.9957,1.48987 -3.3904,3.14556 -5.5821,7.20545 -6.2833,11.63953 -0.5095,3.22235 -0.2548,4.06597 1.7054,5.64884 2.4742,1.99797 3.4059,2.13136 9.1437,1.30924 z m -735.6016,-1.99334 c -3.8781,-2.64405 -5.6162,-6.16821 -5.6051,-11.36503 0.013,-6.27022 3.7369,-13.11198 8.4469,-15.5207 1.9472,-0.99573 3.2895,-2.16239 2.9828,-2.59239 -0.9118,-1.27881 1.3839,-0.89527 5.4786,0.91539 5.1292,2.26804 11.8304,9.009 13.1371,13.21512 1.7434,5.612 -0.8824,10.38351 -7.057,12.82369 -1.374,0.54294 -4.0732,1.73967 -5.9982,2.65922 -4.5249,2.16161 -8.078,2.11939 -11.3851,-0.1353 z m 12.9319,-4.80887 c 8.3916,-3.99801 10.5497,-7.15136 8.0362,-11.74232 -0.9068,-1.65638 -3.3993,-4.49319 -5.5388,-6.30403 -4.6748,-3.95658 -6.6125,-3.79406 -12.7018,1.06534 -6.6208,5.2835 -7.9447,12.69784 -3.2007,17.92526 2.7178,2.99474 5.5571,2.79478 13.4051,-0.94425 z m 709.6713,-45.59742 c -6.478,-5.48953 -5.0078,-12.16473 4.3728,-19.85444 4.8746,-3.99584 5.6756,-4.33587 10.2144,-4.33587 10.414,0 15.8355,8.11234 11.581,17.32879 -2.0025,4.33786 -5.4553,6.52651 -12.9737,8.22389 -8.1353,1.83666 -9.5977,1.68567 -13.1945,-1.36237 z m 17.307,-3.77465 c 3.3499,-1.2132 7.4749,-7.1032 7.4749,-10.67329 0,-2.74667 -4.0274,-6.12634 -8,-6.71339 -2.6732,-0.39499 -4.7871,0.0563 -8.9489,1.91068 -5.9557,2.65358 -8.5451,5.24926 -9.5532,9.57673 -0.5576,2.39323 -0.1875,3.22116 2.4689,5.52362 2.9378,2.54636 3.4315,2.67325 8.2469,2.11957 2.8171,-0.32391 6.5572,-1.10867 8.3114,-1.74392 z m -630.5985,-1.30924 c -6.7035,-6.10799 -7.5568,-16.80431 -1.6276,-20.40387 1.1803,-0.71655 1.7367,-1.30282 1.2364,-1.30282 -0.5002,0 0.4121,-1.20159 2.0275,-2.67014 2.6181,-2.38003 3.3716,-2.61094 6.9371,-2.12625 2.2,0.29912 6.3117,1.45893 9.1372,2.5774 4.1469,1.64155 5.3624,2.62524 6.306,5.10347 1.4451,3.79528 0.1909,8.44769 -3.4215,12.69169 -2.9283,3.44016 -3.0625,3.85788 -1.0217,3.17901 2.6054,-0.8665 1.6308,0.90111 -2.0348,3.69077 -2.9693,2.25973 -4.3539,2.69007 -8.6548,2.69007 -4.6632,0 -5.4559,-0.30605 -8.8838,-3.42933 z m 11.6089,-2.42129 c 4.2438,-4.14634 9.3405,-10.96444 10.0103,-13.39119 0.5,-1.81187 0.07,-2.83889 -1.9046,-4.55048 -2.9109,-2.52313 -7.225,-2.88977 -11.4927,-0.97692 -3.3107,1.48389 -11.1507,8.68275 -11.1429,10.23156 0.015,3.06261 2.3527,7.72196 4.6637,9.29766 3.5838,2.44339 6.9539,2.23477 9.8662,-0.61063 z m 464.9976,4.89771 c -4.6879,-0.98282 -8.2658,-3.613 -10.162,-7.47019 -5.3867,-10.95773 6.9364,-23.64699 22.9648,-23.64699 3.722,0 4.6641,1.04331 4.6641,5.16527 0,1.33282 0.7047,2.93017 1.566,3.54972 0.8612,0.61956 2.1933,2.178 2.9601,3.46331 6.3108,10.57775 -7.0393,22.07403 -21.993,18.93888 z m 11.877,-6.89241 c 3.3757,-1.45658 6.233,-4.61445 7.1245,-7.87398 0.7381,-2.69848 -2.506,-5.7603 -8.6458,-8.1601 -3.7636,-1.47097 -3.8906,-1.45927 -9.3686,0.86373 -6.283,2.66441 -8.5202,5.49724 -8.5202,10.7888 0,4.88393 2.6313,6.37677 10.5,5.95715 3.3,-0.17596 7.3096,-0.88505 8.9101,-1.5756 z m 36.8985,6.87975 c -5.3334,-1.32224 -7.6406,-5.13037 -7.5856,-12.52061 0.037,-4.97225 0.5523,-7.1167 2.412,-10.03655 3.0431,-4.77783 7.9861,-7.68061 13.0786,-7.68061 4.0153,0 7.7864,1.22326 7.7864,2.52574 0,0.40218 1.575,2.99829 3.5,5.76914 5.2266,7.52312 4.8925,10.24761 -1.9436,15.85146 -7.0768,5.80115 -11.7548,7.45328 -17.2478,6.09143 z m 8.1096,-5.62789 c 0.87,-0.28941 1.5818,-1.23522 1.5818,-2.10197 0,-0.95821 1.6657,-2.37007 4.25,-3.60225 4.7534,-2.2664 5.9992,-5.42981 3.4567,-8.77732 -1.2604,-1.65932 -2.3389,-1.89413 -8.7011,-1.89413 -7.215,0 -7.2827,0.0217 -10.384,3.33078 -2.4039,2.565 -3.1216,4.17839 -3.1216,7.01754 0,4.95266 1.7198,6.55347 7.0407,6.55347 2.3626,0 5.0075,-0.23679 5.8775,-0.52612 z m 36.8925,5.08738 c -1.2041,-0.18384 -3.7916,-1.8715 -5.75,-3.75038 -3.0865,-2.96122 -3.5607,-3.99673 -3.5607,-7.77528 0,-7.83879 4.4902,-13.40234 12.8899,-15.97107 11.2033,-3.42604 21.6996,0.54355 25.1083,9.49578 0.9361,2.45856 0.7962,3.45689 -0.8842,6.31191 -2.579,4.38172 -8.6705,9.02783 -11.4652,8.74466 -1.1818,-0.1197 -3.4988,0.38692 -5.1488,1.12584 -3.4693,1.55366 -8.049,2.29803 -11.1893,1.81854 z m 9.9223,-7.22957 c 8.7884,-2.56613 11.607,-3.99576 13.6673,-6.93225 3.8772,-5.52611 -0.6587,-9.46882 -12.4003,-10.77849 -4.4925,-0.50107 -5.4755,-0.28239 -9.6858,2.15467 -6.2141,3.59705 -9.6017,9.28334 -7.7896,13.07532 2.2712,4.75244 6.3109,5.37072 16.2084,2.48075 z m -526.733,4.51393 c -6.3751,-3.43187 -9.5031,-7.98409 -9.4962,-13.81997 0.012,-10.0941 15.3921,-17.11077 25.1119,-11.45638 9.537,5.54803 10.5811,14.29415 2.573,21.55446 -6.072,5.50499 -12.4514,6.81041 -18.1887,3.72189 z m 13.2436,-3.75439 c 2.4684,-1.77556 7.2372,-9.67892 7.247,-12.01042 0.017,-4.00121 -2.1045,-5.39323 -8.5892,-5.63592 -3.2458,-0.12143 -7.3414,0.15714 -9.1014,0.61913 -3.7938,0.99573 -9.3,6.11749 -9.3,8.65068 0,3.24896 3.2511,7.85769 6.421,9.10227 3.447,1.35347 11.0046,0.94173 13.3226,-0.72574 z m 198.4688,2.78423 c -9.0868,-3.57463 -9.8151,-15.77564 -1.3967,-23.39705 5.7348,-5.1918 14.1562,-6.58893 21.1296,-3.50535 5.1396,2.27264 8.0547,5.63307 8.0547,9.28507 0,4.09032 -2.025,7.10343 -7.6732,11.41738 -2.6547,2.02761 -5.5525,4.26194 -6.4396,4.96531 -1.3573,1.07619 -7.1805,3.0043 -8.8806,2.94042 -0.2786,-0.0104 -2.436,-0.77809 -4.7942,-1.70578 z m 14.5193,-7.48718 c 6.6717,-4.12646 9.2683,-7.33182 9.2683,-11.44104 0,-3.40835 -1.4429,-4.24486 -8.5099,-4.93359 -5.1442,-0.50133 -6.6255,-0.2966 -10.4901,1.45026 -7.3031,3.30105 -11.0983,11.61968 -7.393,16.20492 3.7335,4.62009 8.1142,4.29245 17.1247,-1.28055 z m 97.7683,7.90946 c -2.2,-0.67451 -5.6875,-2.78752 -7.75,-4.6956 -3.0692,-2.83933 -3.75,-4.11243 -3.75,-7.01277 0,-1.949 0.6485,-4.63057 1.4411,-5.95897 1.8146,-3.04145 7.7693,-7.03288 10.4922,-7.03288 1.1367,0 2.0667,-0.54337 2.0667,-1.20739 0,-1.69443 2.2502,-2.25175 6.6924,-1.65759 7.2221,0.96591 11.9488,4.16824 14.7599,9.99971 3.298,6.84149 0.8709,11.98077 -7.6609,16.22156 -5.8649,2.91528 -10.0425,3.2599 -16.2914,1.34393 z m 13.3526,-4.02568 c 0.1939,-0.46155 2.1064,-2.59551 4.25,-4.74221 4.2453,-4.25154 4.6808,-6.03776 2.4031,-9.85548 -2.9714,-4.98048 -8.1813,-6.54472 -11.9412,-3.58518 -1.1355,0.89372 -4.4213,2.28859 -7.3018,3.09971 -12.0268,3.38642 -12.3589,11.97843 -0.6075,15.71398 4.0654,1.29234 12.5599,0.88626 13.1974,-0.63082 z m -441.8037,1.59872 c -1.8982,-0.39776 -4.0299,-1.40921 -4.7373,-2.24771 -1.838,-2.17877 -2.6464,-6.77233 -1.844,-10.47937 0.7689,-3.5525 6.7729,-9.45512 8.6142,-8.46875 0.7859,0.42098 0.9119,0 0.4116,-1.36194 -0.6941,-1.89543 -0.56,-1.94631 3.6094,-1.36844 8.6392,1.19743 14.2445,7.1349 12.873,13.63594 -0.397,1.88147 -0.8914,3.5225 -1.0988,3.64671 -3.8089,2.28165 -6.7263,4.90603 -5.4537,4.90603 0.8672,0 1.5767,0.39004 1.5767,0.86675 0,0.47675 -1.4625,0.87208 -3.25,0.87858 -1.7875,0.009 -4.15,0.17014 -5.25,0.3636 -1.1,0.19346 -3.553,0.026 -5.4511,-0.3714 z m 9.721,-6.30154 c 8.9754,0 6.7485,-10.28296 0.064,-13.27883 -2.6038,-1.16709 -3.1057,-1.09913 -6.7975,0.92093 -5.1507,2.81827 -7.0948,5.47818 -7.3024,9.99139 -0.1953,4.24408 1.8299,6.06376 6.7485,6.06376 2.3287,0 3.0924,-3.69725 7.287,-3.69725 z m 363.6453,7.9323 c -4.9215,-1.85741 -7.4152,-5.28102 -7.4152,-10.18063 0,-5.75779 1.9205,-9.32043 7.0931,-13.158 7.2154,-5.35319 18.9069,-7.13741 18.9069,-2.88535 0,0.59737 2.025,2.55321 4.5,4.34644 4.2303,3.06486 4.5,3.51974 4.5,7.58813 0,3.94124 -0.4067,4.70468 -4.5544,8.54806 -2.5049,2.32118 -6.0604,4.83972 -7.9011,5.59686 -4.0471,1.66452 -10.9272,1.73022 -15.1293,0.14449 z m 17.5911,-8.22522 c 7.1954,-6.23676 7.8165,-10.03533 2.0624,-12.61437 -5.1258,-2.29752 -11.1208,-2.53614 -14.7028,-0.58524 -7.5612,4.11815 -11.4296,12.2005 -7.4784,15.62515 1.7199,1.49073 3.3296,1.83111 8.6601,1.83111 6.508,0 6.5774,-0.026 11.4587,-4.25665 z m 84.2408,8.84521 c -1.2392,-0.20681 -3.8267,-1.66247 -5.75,-3.23468 -3.3487,-2.7374 -3.4971,-3.11609 -3.4971,-8.92346 0,-7.01433 1.5075,-9.31765 8.3232,-12.71665 6.6954,-3.3391 11.5666,-3.6331 17.4414,-1.05276 9.5551,4.19676 12.7018,10.45528 8.3598,16.62686 -2.3905,3.39778 -10.3371,7.82024 -16.1244,8.97358 -4.6791,0.93245 -5.0437,0.94606 -8.7529,0.32711 z m 16.0846,-7.95522 c 7.7311,-4.61047 9.6897,-8.80168 5.6408,-12.07118 -7.6173,-6.15104 -23.5311,-2.83976 -27.6761,5.75875 -2.518,5.22352 0.7943,8.98447 8.7036,9.88217 4.1565,0.47187 8.5086,-0.69349 13.3317,-3.56974 z m -549.8317,6.69441 c -7.7349,-3.68693 -7.1005,-13.24373 1.4147,-21.31299 3.5292,-3.34448 8.2078,-3.72516 14.5853,-1.18685 9.519,3.78869 11.7429,11.02733 5.145,16.74612 -6.092,5.28029 -16.3068,8.05984 -21.145,5.75372 z m 13.2281,-3.80776 c 3.8512,-1.37104 7.263,-5.85556 7.2682,-9.55333 0.01,-4.18765 -3.7994,-6.68279 -10.8676,-7.12597 -5.4032,-0.33873 -6.0441,-0.17942 -8.4978,2.11247 -3.9808,3.71822 -6.21,9.35536 -4.7773,12.08079 2.2912,4.35858 8.8858,5.33013 16.8745,2.48604 z m 256.0997,1.95705 c -5.3094,-3.50473 -7.2605,-7.82787 -6.3386,-14.04504 1.0875,-7.3352 3.6395,-11.21083 8.4893,-12.89286 4.1239,-1.43015 8.0215,-1.24397 8.0215,0.38328 0,0.44456 -0.4765,0.80834 -1.059,0.80834 -0.5825,0 -0.7619,0.41656 -0.3988,0.92578 0.3631,0.50922 1.2199,0.7397 1.904,0.51217 1.9708,-0.65553 8.7716,2.41687 12.0538,5.44541 2.579,2.37978 2.9929,3.41616 2.9491,7.38539 -0.062,5.66583 -3.5961,10.22117 -9.833,12.67609 -6.3116,2.48433 -10.7156,2.15002 -15.7883,-1.19856 z m 15.8824,-5.26339 c 1.7656,-1.4929 3.8933,-4.14423 4.7283,-5.89188 2.2168,-4.63984 0.1201,-6.54766 -8.9573,-8.15073 -3.8397,-0.67816 -7.9795,-1.4338 -9.1997,-1.67935 -2.8,-0.56348 -4.8835,2.6229 -5.8517,8.94954 -0.6527,4.26454 -0.536,4.57276 2.84,7.49885 3.3188,2.8766 3.7991,3.02109 8.3755,2.51976 3.5846,-0.39265 5.6946,-1.24198 8.0649,-3.24619 z m 34.5943,6.82061 c -10.8163,-6.56665 -7.6942,-24.70323 4.2526,-24.70323 8.8155,0 17.4429,4.96627 17.4429,10.04088 0,2.71773 -2.5691,7.11869 -5.374,9.20576 -2.1259,1.58192 -2.1258,1.58201 0.874,1.04566 l 3,-0.53627 -3.8056,3.12337 c -3.3712,2.7668 -4.4019,3.12339 -9.0275,3.12339 -3.022,0 -6.1236,-0.54745 -7.3624,-1.29956 z m 12.662,-7.93075 c 5.5233,-6.32387 6.2368,-9.1476 2.7835,-11.01546 -6.019,-3.25564 -13.684,-1.95272 -17.5814,2.98841 -2.9282,3.7125 -2.3908,7.82249 1.481,11.32532 4.5797,4.14328 7.4352,3.4361 13.3169,-3.29827 z m -115.8701,7.26725 c -8.3241,-3.70791 -9.4746,-16.35868 -1.9846,-21.82143 1.6381,-1.19465 4.7655,-2.63625 6.9498,-3.20345 3.5149,-0.91279 4.5154,-0.80904 8.7049,0.90299 8.0458,3.28796 11.2335,6.38177 11.2335,10.90269 0,2.61605 -2.1418,6.55183 -4.4814,8.23473 -1.2586,0.90542 -1.3336,1.31037 -0.3408,1.84212 0.8598,0.4606 -0.1787,1.25212 -3.2027,2.44105 -5.0614,1.99002 -13.2243,2.32918 -16.8787,0.7013 z m 16.8185,-6.81784 c 2.9172,-3.17563 4.0851,-5.26417 4.0851,-7.30547 0,-4.20968 -3.9329,-7.0276 -6.5917,-4.72306 -0.6557,0.56834 -2.0192,0.52344 -4.0237,-0.13235 -6.6817,-2.18597 -14.3846,2.51551 -14.3846,8.77983 0,5.50314 3.2282,7.82813 10.8695,7.82813 h 5.9604 z m -231.2951,122.33454 c -4.5066,-0.68119 -9.2425,-4.34107 -10.754,-8.31074 -0.8956,-2.35221 -0.7455,-3.52624 0.8508,-6.65428 2.3758,-4.65519 5.8487,-6.8844 14.608,-9.37677 8.0232,-2.28287 12.0456,-1.66548 12.1396,1.86327 0.031,1.17793 0.8594,3.19938 1.84,4.49224 0.9807,1.29277 2.0156,3.85378 2.3,5.69114 0.4468,2.88743 0.096,3.70565 -2.5868,6.0309 -1.7071,1.47956 -4.4553,2.9475 -6.107,3.26187 -1.6518,0.31446 -3.0033,0.89268 -3.0033,1.28489 0,1.29485 -5.4345,2.29986 -9.2873,1.71748 z m 11.4861,-5.81864 c 2.615,-2.42259 5.8012,-7.24194 5.8012,-8.77471 0,-0.46389 -1.165,-2.04339 -2.5889,-3.51012 -3.214,-3.31076 -6.9011,-3.47145 -13.9111,-0.60612 -7.1117,2.90685 -9.8797,5.73551 -9.002,9.19934 0.949,3.74509 5.5641,6.06774 12.0649,6.07191 4.2354,0 5.4835,-0.38632 7.6359,-2.3803 z m -18.3953,57.69325 c -5.2953,-4.28751 -6.5467,-12.10931 -2.7547,-17.21833 1.9893,-2.68011 9.9141,-6.43274 13.8558,-6.56119 10.8274,-0.35277 18.6987,13.14638 11.5249,19.76513 -3.1248,2.88301 -12.04,6.40014 -16.2233,6.40014 -2.3908,0 -4.3645,-0.73544 -6.4027,-2.38575 z m 11.3413,-2.92843 c 5.833,-1.2731 9.3937,-5.10278 9.3937,-10.10346 0,-4.36318 -2.5755,-6.25132 -8.5267,-6.25132 -4.8137,0 -12.9054,4.01777 -13.9751,6.93909 -1.0712,2.92523 0.3562,7.6091 2.7642,9.07098 2.607,1.5827 4.3979,1.64242 10.3439,0.34471 z"
         id="path10261-7"
         sodipodi:nodetypes="sssssssccsssssssssssssccsssssssssssssssssssssccsssscssssscssssssccsssscssssccssssssssssssssssssssssssscsscscssssssssssscsssscsssscsssssssssssssssssssscssssssssssssssscsssssssssssssssssssssssssssssssssssssssssscsssssssssssssssssssssssssssssssscsssssssssssssssssssssssssssssssssssssssssscsssssssssssssssssssssssssssssssssscssssssssscssssssccsssssssssssssssssssccccsscccssssssccssssssscsssccscsssssssscsscccssscccssccsssssssscsssccsssccsscccsssscccscsssscscsssccssssssssssssssssssssssscsssssssssssssssssssssssssssssscssssssssssssssssssssssssssssssssssssssssssscssssssssssssssssssssssssssssssssssssssssssssssssssssssssssssssssssssssssssssssssssssssssscscssscsscsscscsssssssssssssssscsssscssssssssscssssssssscsssssssssssscssssssssssssssscssssssssssssssssssssssscssssssssssssssss" />
      <path
         style="fill:#fe6600;fill-opacity:1;stroke:none;stroke-width:0;stroke-miterlimit:4;stroke-dasharray:none"
         d="m -4106.7177,-718.45869 c -6.2949,-0.50073 -18.8031,-1.65973 -27.7959,-2.57556 -8.9929,-0.91584 -23.2178,-1.69866 -31.6111,-1.73961 -15.0165,-0.0733 -20.8416,-0.8813 -18.1858,-2.52263 2.0004,-1.23634 1.5313,-2.62842 -1.1624,-3.4493 -5.7488,-1.75191 -7.8865,-6.64729 -4.9536,-11.34374 1.0729,-1.71791 0.9728,-2.48154 -0.545,-4.15868 -2.0832,-2.30194 -2.4822,-6.39853 -0.6816,-6.99873 0.8087,-0.26958 0.7274,-1.38046 -0.2597,-3.54689 -1.1301,-2.48025 -1.1488,-3.25053 -0.087,-3.60429 1.7518,-0.58393 1.7432,-3.1979 -0.013,-3.90648 -1.0901,-0.43984 -1.0901,-0.567 0,-0.63585 1.9141,-0.1209 1.7377,-7.49681 -0.2262,-9.46079 -0.8738,-0.8738 -1.3095,-2.31657 -0.9681,-3.20613 0.3413,-0.88957 -0.01,-2.37348 -0.7738,-3.29759 -0.7669,-0.9241 -1.4999,-4.22885 -1.6287,-7.34387 -0.1289,-3.11502 -0.7724,-19.88868 -1.4301,-37.27478 -1.7838,-47.15805 -2.2282,-56.60442 -4.538,-96.46835 -1.1636,-20.08395 -2.2468,-44.77775 -2.4069,-54.87511 l -0.2912,-18.35885 15.2606,0.72862 c 8.3933,0.40074 56.2187,0.90288 106.2787,1.11585 50.0599,0.21298 106.7147,0.78882 125.8993,1.27966 19.1847,0.49083 143.776,0.89242 276.8697,0.89242 207.2026,0 243.2127,-0.2281 250.5057,-1.5868 7.4559,-1.38904 8.6544,-1.38904 9.6165,0 1.2727,1.83753 0.2875,51.58747 -1.2619,63.71896 -0.536,4.19665 -1.4666,33.87293 -2.0679,65.94729 -1.091,58.18613 -1.5966,68.63497 -3.4929,72.18821 -1.3238,2.48044 -2.9688,25.63836 -3.2732,46.0809 -0.134,8.99281 -0.4468,16.74227 -0.6952,17.22103 -0.2484,0.47876 -1.2197,0.2335 -2.1585,-0.54502 -1.3484,-1.11821 -12.9456,-1.41548 -55.2223,-1.41548 -33.1246,0 -62.2376,-0.56413 -76.4063,-1.48053 -16.5438,-1.07002 -37.8517,-1.32698 -76.8477,-0.92677 -60.5163,0.62106 -111.9412,3.07028 -189.6666,9.03327 -14.5769,1.11833 -51.0535,1.94718 -116.089,2.63786 -109.8918,1.16707 -143.8083,1.14112 -159.6906,-0.12224 z m 261.8203,-12.08313 c 2.2145,-0.65006 5.7936,-2.63865 7.9535,-4.41908 3.7582,-3.09777 3.9134,-3.49947 3.604,-9.32823 -0.2964,-5.58512 -0.6193,-6.26349 -3.8871,-8.16679 -1.9601,-1.14165 -6.7489,-2.80225 -10.6419,-3.69024 -6.6331,-1.51301 -7.2996,-1.48509 -10.6029,0.44417 -8.1776,4.77598 -11.084,16.11714 -6.1883,24.1475 l 2.2411,3.67605 6.7477,-0.74073 c 3.7112,-0.40741 8.5594,-1.2726 10.7739,-1.92265 z m -201.0914,-2.94235 c 3.2483,-4.82534 3.177,-9.75208 -0.2084,-14.39312 -1.486,-2.0371 -3.2587,-4.75735 -3.9394,-6.04499 -2.4226,-4.5829 -11.0716,-4.07689 -20.0276,1.17171 -5.8582,3.43314 -8.2125,7.47995 -8.2125,14.11667 0,3.9921 0.5305,5.29748 2.9152,7.1733 2.6276,2.06681 4.1027,2.26287 14.9473,1.98668 l 12.032,-0.30643 z m 250.4112,1.99973 c 3.3062,-1.23701 7.0035,-3.51049 8.2162,-5.05218 5.8569,-7.44589 -1.4564,-19.97455 -11.639,-19.93901 -1.6784,0.005 -5.6463,1.21854 -8.8174,2.69487 -4.5333,2.11046 -6.1288,3.55319 -7.4643,6.74967 -2.1974,5.25904 -0.6291,11.03795 4.068,14.99032 4.0479,3.40609 7.675,3.53513 15.6365,0.55633 z m -308.2599,-2.51495 c 1.4265,-1.65834 2.57,-4.39892 2.57,-6.15918 0,-3.51448 -4.8212,-9.73883 -9.8396,-12.70328 -1.6803,-0.99256 -3.5769,-2.94988 -4.2146,-4.3496 -2.0504,-4.50014 -12.4823,-3.04212 -15.9349,2.22714 -2.4424,3.72762 -3.3548,13.9353 -1.62,18.12359 2.219,5.35708 5.6709,6.63608 16.7762,6.21587 8.9976,-0.34045 9.8773,-0.58109 12.2629,-3.35454 z m 101.454,1.80229 c 8.0214,-3.64006 10.1198,-5.62205 10.1198,-9.55833 0,-2.00825 -1.2521,-6.14424 -2.7825,-9.1911 -2.6934,-5.36252 -2.9288,-5.53768 -7.3577,-5.47496 -7.454,0.10562 -17.177,4.24499 -20.0692,8.5442 -4.1601,6.1838 -3.0053,11.58116 3.3005,15.42609 4.3186,2.63322 11.3131,2.73908 16.7891,0.2541 z m 308.9234,-2.01092 c 13.9866,-7.08752 17.1263,-10.88984 13.5274,-16.38233 -3.0251,-4.6169 -9.681,-6.93477 -19.9918,-6.96203 l -9.0563,-0.024 -4.9097,4.63886 c -3.8765,3.6626 -5.0396,5.60765 -5.5272,9.24231 -1.6124,12.02134 11.4996,16.81357 25.9576,9.48712 z m -259.3515,0.77551 c 0.7834,-1.10941 3.3207,-2.70007 5.6384,-3.53481 8.9631,-3.2281 12.351,-9.48407 8.764,-16.18346 -4.2122,-7.86711 -16.8717,-11.12893 -25.2078,-6.495 -12.454,6.92295 -14.1213,15.74311 -4.6019,24.34333 3.5713,3.22649 5.125,3.88704 9.1427,3.88704 3.47,0 5.2434,-0.57102 6.2646,-2.0171 z m 51.4722,1.079 c 0.3188,-0.51596 3.6588,-1.79279 7.422,-2.83741 9.1466,-2.53893 10.6575,-4.033 10.6575,-10.53857 0,-5.03866 -0.2366,-5.44311 -5.7227,-9.78489 -9.0851,-7.19 -9.5175,-7.26801 -17.7686,-3.20602 -8.1741,4.02413 -11.3795,8.12558 -11.3858,14.5687 -0.01,7.89622 4.3701,12.67343 11.6494,12.71205 2.5126,0.0133 4.8293,-0.39791 5.1482,-0.91386 z m 159.493,-4.66884 c 4.9428,-3.05484 7.9217,-7.2042 7.9217,-11.03447 0,-6.80456 -8.3766,-15.4733 -14.7765,-15.29188 -7.5726,0.21465 -17.9171,7.73075 -20.7119,15.0488 -1.5661,4.10075 -1.6396,5.37169 -0.4731,8.1877 2.4191,5.8402 4.8073,6.77632 15.2497,5.97755 6.3855,-0.48845 10.36,-1.38578 12.7901,-2.8877 z m -420.5918,-1.04111 c 3.7179,-1.85787 7.5301,-4.55355 8.4716,-5.99039 2.3772,-3.62808 1.1237,-9.64688 -2.5292,-12.14404 -1.5475,-1.0579 -4.172,-3.32433 -5.8324,-5.03653 -2.7189,-2.80393 -3.4779,-3.0355 -7.6431,-2.3318 -2.9408,0.49684 -6.0292,2.06874 -8.4832,4.31765 -3.4308,3.14408 -3.9113,4.2621 -4.3321,10.07852 -0.458,6.33186 -0.3455,6.66978 3.498,10.51333 4.9612,4.96122 7.9021,5.06477 16.8504,0.59326 z m 519.3268,1.09656 c 8.0208,-2.3887 13.8337,-6.77912 13.8262,-10.44272 -0.011,-5.53316 -7.6985,-12.5604 -15.2755,-13.96409 -4.1592,-0.7705 -5.2829,-0.1005 -14.8122,8.83164 -5.8898,5.52069 -6.4535,10.00508 -1.8604,14.79929 3.6155,3.77369 7.4977,3.9399 18.1219,0.77588 z m 143.7218,-0.2068 c 6.053,-2.54865 8.5433,-5.57679 8.5433,-10.38834 0,-4.75727 -3.7288,-9.14761 -9.4686,-11.14852 -2.2276,-0.77654 -3.6524,-2.14901 -4.1056,-3.95478 -0.6333,-2.52344 -1.0443,-2.69981 -4.6952,-2.01491 -10.742,2.01523 -19.8819,10.7507 -19.8819,19.00228 0,2.14588 1.216,4.67128 3.5041,7.27724 l 3.504,3.99092 9.3039,-0.5415 c 5.1171,-0.29782 11.1003,-1.2979 13.296,-2.22239 z m -64.4892,-0.23692 c 3.2973,-0.88504 7.9881,-1.615 10.4239,-1.62212 8.652,-0.0253 13.5053,-9.65407 8.6223,-17.10641 -2.3255,-3.54916 -5.858,-4.70728 -14.358,-4.70728 -15.4086,0 -19.7807,3.96082 -18.4479,16.71257 0.3659,3.50002 0.9426,6.81247 1.2816,7.36099 0.8934,1.44556 5.6156,1.20421 12.4781,-0.63775 z m -33.2462,-4.34358 c 4.1967,-1.96776 8.7328,-3.91283 10.0804,-4.32239 7.7913,-2.36805 0,-16.76668 -10.104,-18.66132 -5.0733,-0.95176 -13.3722,3.14592 -16.127,7.96284 -3.1458,5.50077 -2.7007,12.89134 1.0096,16.7641 3.4602,3.6117 3.8052,3.57198 15.141,-1.74323 z m 146.0846,-0.98397 c 6.9926,-6.99257 7.932,-9.91149 5.8008,-18.02535 l -1.5964,-6.07812 -8.1688,0.0453 c -6.8939,0.0383 -8.9663,0.51274 -13.2788,3.04 -6.5175,3.81951 -8.8007,8.08563 -8.1198,15.17175 0.7748,8.06312 5.1705,11.27679 15.8768,11.60736 2.988,0.0922 4.6304,-0.90519 9.4862,-5.76099 z m -738.5202,-3.93777 c 0,-0.59952 -0.4905,-1.09004 -1.09,-1.09004 -0.5995,0 -1.09,0.49052 -1.09,1.09004 0,0.59952 0.4905,1.09004 1.09,1.09004 0.5995,0 1.09,-0.49052 1.09,-1.09004 z m 602.791,-21.82236 c 24.8801,-0.54983 48.8464,-1.49895 53.2584,-2.10916 4.412,-0.6102 15.9391,-1.63875 25.6159,-2.28566 9.6767,-0.6469 19.3535,-1.63203 21.5041,-2.1892 4.4436,-1.15126 4.9607,-2.02734 8.969,-15.19514 2.9395,-9.65685 3.2237,-12.07086 9.5589,-81.20782 3.6944,-40.31736 4.0311,-64.48009 0.9414,-67.56408 -1.4971,-1.4943 -13.2152,-1.73294 -101.9186,-2.07563 -59.9005,-0.23141 -104.832,-0.85394 -111.6724,-1.54724 -35.9338,-3.64204 -134.3028,-4.15042 -243.6234,-1.25906 -104.2588,2.75749 -129.2474,3.09238 -151.5153,2.0306 -12.5899,-0.60031 -34.4899,-1.36759 -48.6666,-1.70506 l -25.7758,-0.61358 -0.8872,2.57585 c -1.1645,3.38115 -0.7645,62.02625 0.6123,89.77888 1.2523,25.24123 1.4967,55.96901 0.5202,65.40228 -0.911,8.80116 0.4843,12.09287 5.7453,13.55382 2.7487,0.76329 33.989,1.1449 92.9777,1.13577 89.6937,-0.014 240.0938,1.66031 288.315,3.20944 37.3748,1.20069 123.2159,1.23237 176.0411,0.065 z m -582.3832,-23.03695 c 5.9557,-3.05749 8.4354,-7.05495 7.374,-11.88759 -1.0084,-4.59083 -5.3747,-9.37623 -9.9255,-10.87812 -8.6483,-2.85424 -21.1264,4.5219 -21.1264,12.48844 0,4.75308 2.3025,9.62244 5.7165,12.08947 3.3448,2.41702 11.2834,1.61606 17.9614,-1.8122 z m 720.7673,-2.00349 c 5.8993,-3.03562 10.0123,-7.98834 11.0347,-13.28753 1.173,-6.08025 0.187,-11.57064 -2.3189,-12.91175 -6.5289,-3.49418 -20.1773,2.69749 -24.5742,11.1483 -2.8482,5.47415 -1.0335,15.85994 3.0782,17.61747 2.1388,0.91422 8.4974,-0.36271 12.7802,-2.56649 z m -722.6444,-50.17506 c 0.2998,-0.42444 1.7713,-1.14744 3.2701,-1.60665 1.4988,-0.45923 4.074,-1.78504 5.7227,-2.94625 3.8355,-2.70147 3.8838,-6.30385 0.1926,-14.36655 -2.5673,-5.60765 -3.1048,-6.12693 -6.3424,-6.12693 -4.8756,0 -14.7353,3.05605 -18.4994,5.73399 -4,2.8458 -6.468,8.54715 -5.1628,11.92699 1.4322,3.70889 6.0183,7.54643 10.1201,8.4683 3.7766,0.8488 9.7627,0.24291 10.6991,-1.0829 z m 728.4528,-0.35946 c 8.0302,-3.37446 14.6575,-14.76871 11.7499,-20.2015 -1.4505,-2.71035 -10.887,-7.76005 -14.4738,-7.74531 -3.5757,0.0147 -13.3413,5.90586 -16.0156,9.66159 -7.775,10.91899 5.4832,23.85582 18.7395,18.28522 z m -1.3369,-49.23416 c 8.633,-3.04592 16.2759,-10.78403 16.2858,-16.48877 0.01,-2.83457 -6.5007,-8.80358 -10.6437,-9.76574 -1.6377,-0.38033 -3.5563,-1.41501 -4.2635,-2.29928 -0.9046,-1.13106 -2.2859,-1.38812 -4.6588,-0.86696 -10.9696,2.40935 -18.4252,19.34191 -11.5455,26.22157 1.4715,1.47155 3.4626,2.67555 4.4245,2.67555 0.9619,0 1.4458,0.49051 1.0752,1.09003 -1.0044,1.62518 3.9708,1.32302 9.326,-0.5664 z m -723.5743,-6.44411 c 12.9869,-5.74344 14.0214,-14.36756 2.8686,-23.91396 -2.501,-2.14079 -6.1325,-4.41552 -8.07,-5.05495 -3.268,-1.07854 -3.8584,-0.86412 -8.1638,2.96541 -5.449,4.8466 -7.617,9.35541 -7.617,15.84088 0,4.58684 1.9409,8.68976 5.4002,11.41577 2.6951,2.12381 9.1132,1.60764 15.582,-1.25315 z m 721.9221,-48.08094 c 8.7152,-2.25313 12.6219,-6.13419 13.2944,-13.20715 0.6307,-6.63268 -2.1676,-10.67717 -8.5824,-12.4045 -6.1542,-1.65716 -10.2975,-0.42234 -15.8949,4.73715 -8.834,8.14288 -9.9523,13.12579 -4.2301,18.84797 4.1919,4.19191 6.078,4.4399 15.413,2.02653 z m -610.2504,-5.13314 c 1.9906,-1.34892 3.5194,-3.18836 3.3974,-4.08764 -0.122,-0.89928 0.8975,-3.7837 2.2655,-6.40983 2.9579,-5.67794 2.4293,-11.27162 -1.2955,-13.70868 -2.147,-1.40476 -13.8781,-4.95236 -16.3763,-4.95236 -1.8674,0 -10.4638,9.62758 -11.194,12.53686 -1.0816,4.30974 1.4539,11.38302 5.5481,15.47721 3.0677,3.06769 4.3651,3.59703 8.8162,3.59703 3.6135,0 6.3328,-0.75457 8.8386,-2.45259 z m 474.6398,-0.3749 c 4.6122,-2.33902 8.5777,-7.80324 8.5777,-11.81955 0,-2.07688 -1.2114,-5.35909 -2.8859,-7.81914 -1.5872,-2.33186 -3.214,-5.46604 -3.6152,-6.96485 -0.6068,-2.26765 -1.4838,-2.78082 -5.2244,-3.0571 -7.2749,-0.53732 -13.3618,1.6966 -18.4286,6.76337 -2.5165,2.51659 -4.9089,5.90378 -5.3163,7.52709 -1.8404,7.3327 3.104,15.33386 10.5841,17.12755 4.4439,1.06563 12.4415,0.20384 16.3086,-1.75737 z m 44.6682,0.0407 c 1.8046,-0.93319 5.2138,-3.44286 7.5761,-5.57703 5.5204,-4.98733 5.5317,-7.9155 0.063,-16.37614 -3.2841,-5.08125 -4.9927,-6.69948 -7.6302,-7.22699 -8.8161,-1.76321 -17.8896,4.83567 -19.2656,14.01121 -0.9372,6.24978 0.88,12.90004 4.1511,15.19118 3.0835,2.15976 10.9081,2.14824 15.1053,-0.0222 z m 45.339,-0.44349 c 9.6114,-2.55695 11.3091,-3.43632 14.9213,-7.72919 3.3846,-4.02247 3.603,-7.94577 0.7067,-12.69596 -2.9746,-4.87847 -8.0467,-7.21754 -15.8784,-7.32258 -12.5029,-0.16769 -21.227,7.01688 -21.227,17.48117 0,3.89396 0.6066,5.07093 4.3633,8.4648 5.0002,4.51745 6.3657,4.66121 17.1141,1.80176 z m -514.0319,-1.76705 c 3.6594,-1.8689 8.3794,-7.45861 9.2596,-10.96574 1.0808,-4.30625 -0.9171,-9.16166 -5.1942,-12.62341 -10.6037,-8.58231 -28.1889,-1.91895 -28.1889,10.68132 0,4.00567 0.6653,5.55473 3.944,9.18391 5.8177,6.43946 12.4617,7.66555 20.1795,3.72392 z m 207.6093,0.1207 c 5.1114,-2.13566 13.9746,-9.1254 16.1449,-12.73219 3.6403,-6.04968 1.276,-11.74315 -6.3062,-15.18637 -5.6799,-2.57934 -10.9281,-2.58757 -16.4787,-0.0258 -13.5667,6.26148 -15.5711,22.54847 -3.4297,27.86985 4.5026,1.97342 5.5073,1.98086 10.0697,0.0745 z m 119.2564,-1.66209 c 6.2062,-3.16619 9.0477,-7.30116 8.3926,-12.21342 -1.0978,-8.23388 -7.2776,-13.53275 -17.1455,-14.70145 -4.3524,-0.51548 -5.4982,-0.29812 -6.0532,1.14833 -0.3766,0.98129 -1.5396,1.78417 -2.5846,1.78417 -1.0449,0 -3.9105,1.45648 -6.3679,3.23662 -7.6159,5.51689 -7.5089,13.20723 0.2661,19.13752 6.8983,5.26157 15.2153,5.83093 23.4925,1.60823 z m -56.9165,0.49026 c 2.229,-0.92856 5.8921,-3.48069 8.1403,-5.67141 3.4081,-3.32094 4.0877,-4.72438 4.0877,-8.44174 0,-3.93621 -0.6369,-5.05972 -5.436,-9.58912 -4.5159,-4.26223 -6.1301,-5.12646 -9.5378,-5.10657 -8.8132,0.0514 -19.0434,7.8875 -20.5111,15.7109 -1.0436,5.56293 2.2303,11.68652 7.1439,13.36214 5.3316,1.81817 11.3514,1.71946 16.113,-0.2642 z m 103.1644,-2.13543 c 13.92,-6.5852 13.8768,-17.43734 -0.094,-23.61728 -6.267,-2.77219 -12.7756,-2.14107 -19.6864,1.90896 -5.3246,3.12044 -6.8438,5.99436 -6.8438,12.94679 0,11.6723 12.0731,15.64532 26.6242,8.76153 z m -534.0921,-0.50969 c 5.1998,-2.51719 9.3088,-7.50482 9.3165,-11.30865 0.01,-3.04666 -6.6272,-9.04966 -11.4925,-10.40043 -6.6639,-1.85011 -8.8274,-1.48139 -13.047,2.22345 -4.8283,4.23931 -7.0675,8.42183 -7.0675,13.2012 0,9.23144 10.2394,12.11827 22.2905,6.28443 z m 270.3368,1.08644 c 5.5448,-2.68418 8.2231,-7.06993 8.2231,-13.46519 0,-5.62677 -2.0247,-7.82423 -10.3718,-11.25685 -2.6843,-1.10387 -4.8824,-2.62019 -4.8846,-3.36959 -0.011,-3.59009 -11.7669,-0.0267 -14.7049,4.45718 -2.8303,4.3197 -3.4118,13.96201 -1.08,17.90947 4.3142,7.30341 14.3541,9.82237 22.8182,5.72498 z m 50.1896,-1.1132 c 2.4154,-1.91953 3.4151,-3.27011 2.4205,-3.27011 -1.4233,0 -1.3209,-0.68175 0.6401,-4.26192 1.8649,-3.40461 2.1196,-4.87308 1.266,-7.30016 -2.1533,-6.12297 -14.8236,-10.48507 -21.8851,-7.53458 -6.3149,2.63855 -8.7118,11.27601 -5.189,18.69969 2.2888,4.82334 6.1077,6.83911 13.0598,6.89356 4.5886,0.0359 6.2995,-0.53389 9.6877,-3.22648 z m -268.3636,1.47099 c 2.6529,-0.43839 3.96,-1.16959 3.6297,-2.03046 -0.284,-0.73995 0.6295,-1.95858 2.03,-2.70807 4.0332,-2.15852 5.163,-9.59036 2.1187,-13.93675 -3.1268,-4.46403 -15.7394,-8.88847 -15.7394,-5.52127 0,0.82384 -1.0916,1.98209 -2.4258,2.57389 -4.2351,1.87857 -7.6472,8.13313 -7.0257,12.87852 1.0384,7.92825 6.3149,10.57799 17.4125,8.74414 z m 164.9199,-0.42322 c 3.6421,-1.30496 8.0654,-8.98459 8.0654,-14.00309 0,-6.30199 -11.8802,-13.19681 -20.0863,-11.65734 -5.3605,1.00563 -11.2799,6.3929 -12.156,11.06329 -0.9657,5.14736 0.1941,8.91982 3.8733,12.59901 2.7978,2.79786 3.8748,3.13044 10.1368,3.13044 3.8536,0 8.4286,-0.50954 10.1668,-1.13231 z"
         id="path113044" />
      <path
         style="fill:#37abc8;fill-opacity:1;stroke:none;stroke-width:0;stroke-miterlimit:4;stroke-dasharray:none"
         d="m -3999.3489,-775.09534 c -93.2596,-0.7345 -129.0159,-1.81537 -139.3387,-4.21205 -2.2957,-0.533 -4.3342,-1.13461 -4.5301,-1.33692 -0.5973,-0.61709 -2.4129,-148.27591 -1.8861,-153.39405 l 0.4921,-4.78108 23.5797,0.70153 c 12.9688,0.38584 28.9753,1.15737 35.5701,1.71452 15.7756,1.3328 77.3996,1.36745 109.0038,0.0613 13.7889,-0.56987 36.598,-1.51659 50.6867,-2.10381 100.237,-4.1779 199.2531,-3.76336 240.8984,1.00854 15.9186,1.82403 29.2682,2.298 80.6628,2.86386 57.0285,0.6279 123.8085,-0.62456 130.532,-2.44813 l 2.4526,-0.66519 v 24.9948 c 0,15.58295 -0.5944,29.50129 -1.5785,36.96257 -0.8681,6.58228 -2.3565,22.4929 -3.3076,35.35693 -0.951,12.86404 -2.4455,28.04906 -3.3212,33.74451 -1.999,13.00296 -6.4169,24.67516 -9.6457,25.48435 -7.0741,1.7729 -58.1623,4.37935 -120.0368,6.12411 -42.1121,1.18747 -234.5827,1.15011 -390.2335,-0.0758 z m 255.0688,-11.22949 c 136.7012,-0.25027 176.5385,-1.01191 212.0124,-4.05342 7.494,-0.64254 18.4204,-1.53277 24.2808,-1.9783 5.8605,-0.44553 11.0644,-1.26366 11.5643,-1.81806 0.4999,-0.55441 1.4458,-3.70586 2.102,-7.00322 0.6563,-3.29737 2.9302,-14.334 5.0532,-24.52586 6.0453,-29.02143 9.4689,-59.60374 9.0911,-81.20782 l -0.3146,-17.98562 h -49.0517 c -26.9785,0 -65.484,-0.69108 -85.568,-1.53572 -31.3204,-1.3172 -54.2751,-1.32193 -161.3256,-0.0332 -68.6451,0.82637 -154.4856,1.35282 -190.7566,1.1699 -72.1368,-0.36379 -163.151,-1.69062 -165.5939,-2.41406 -2.8435,-0.84207 -3.3491,6.64458 -2.7667,40.96444 0.7359,43.35978 4.103,94.98974 6.3408,97.22759 0.3642,0.36415 13.0549,1.09118 28.2016,1.61564 15.1467,0.52447 35.8783,1.39661 46.0701,1.9381 10.1919,0.54149 52.3763,0.7403 93.7433,0.4418 41.3669,-0.29849 138.9798,-0.65946 216.9175,-0.80215 z"
         id="path116513" />
      <path
         style="fill:#ffd42a;fill-opacity:1;stroke:none;stroke-width:0;stroke-miterlimit:4;stroke-dasharray:none"
         d="m -4184.1539,-962.31953 c -3.2502,-2.63186 -2.2567,-6.82194 2.8216,-11.90028 3.462,-3.46196 4.0844,-3.68248 8.3835,-2.97027 8.9691,1.48583 11.8482,4.82666 8.9648,10.40252 -3.1128,6.01955 -15.0015,8.65314 -20.1699,4.46803 z"
         id="path116552" />
      <path
         style="fill:#ffd42a;fill-opacity:1;stroke:none;stroke-width:0;stroke-miterlimit:4;stroke-dasharray:none"
         d="m -4071.9203,-958.05944 c -4.6077,-4.60767 -4.1746,-7.74888 1.7923,-13.00117 5.5845,-4.91573 9.5948,-6.23505 13.9357,-4.58466 5.9027,2.24423 4.8618,6.59416 -3.7259,15.56989 -2.7375,2.86121 -5.8409,5.20221 -6.8966,5.20221 -1.0556,0 -3.3531,-1.43382 -5.1055,-3.18627 z"
         id="path121971" />
      <path
         style="fill:#ffd42a;fill-opacity:1;stroke:none;stroke-width:0;stroke-miterlimit:4;stroke-dasharray:none"
         d="m -3966.9503,-963.11027 c -3.0309,-2.12292 -3.1887,-6.92589 -0.343,-10.44016 1.7667,-2.18175 3.3472,-2.65224 10.5034,-3.12665 7.7848,-0.5161 8.5424,-0.37735 9.9882,1.82933 1.8105,2.76318 0.8274,5.4404 -3.8327,10.43674 -2.3423,2.51138 -3.6958,2.99761 -8.3445,2.99761 -3.2579,0 -6.549,-0.70058 -7.9714,-1.69687 z"
         id="path122010" />
      <path
         style="fill:#ffd42a;fill-opacity:1;stroke:none;stroke-width:0;stroke-miterlimit:4;stroke-dasharray:none"
         d="m -3863.2115,-963.06662 c -7.5307,-7.53076 3.7757,-18.19859 14.2365,-13.43234 4.0355,1.83872 3.4389,4.66037 -2.278,10.77211 -5.7002,6.09406 -8.0107,6.60803 -11.9585,2.66023 z"
         id="path122049" />
      <path
         style="fill:#ffd42a;fill-opacity:1;stroke:none;stroke-width:0;stroke-miterlimit:4;stroke-dasharray:none"
         d="m -3752.8948,-963.47682 c -1.6894,-1.86673 -1.7151,-2.42794 -0.2696,-5.88755 1.8364,-4.39495 8.652,-9.49248 12.68,-9.48356 4.9123,0.0109 10.8673,2.21917 12.0763,4.47822 1.0211,1.90796 0.4502,2.94082 -4.1916,7.58257 -5.2417,5.24171 -5.5341,5.37374 -11.9007,5.37374 -5.0197,0 -6.9583,-0.47653 -8.3944,-2.06342 z"
         id="path122088" />
      <path
         style="fill:#ffd42a;fill-opacity:1;stroke:none;stroke-width:0;stroke-miterlimit:4;stroke-dasharray:none"
         d="m -3646.1767,-961.12694 c -4.1459,-0.77732 -8.0209,-2.67215 -8.6114,-4.21086 -1.6486,-4.29634 4.1405,-10.48848 11.712,-12.52726 8.0144,-2.15808 17.5563,1.11397 16.8594,5.78135 -0.7271,4.86949 -13.8896,12.0949 -19.96,10.95677 z"
         id="path122127" />
      <path
         style="fill:#ffd42a;fill-opacity:1;stroke:none;stroke-width:0;stroke-miterlimit:4;stroke-dasharray:none"
         d="m -3550.5804,-959.45133 c -2.1729,-2.17294 -1.4771,-7.04404 1.514,-10.59874 2.5934,-3.0821 3.3704,-3.35375 9.5923,-3.35375 3.8125,0 7.3418,0.57148 8.0784,1.30805 2.1295,2.12953 1.5039,4.99606 -1.5472,7.08886 -1.5703,1.07715 -3.9565,3.06212 -5.3026,4.41104 -2.7296,2.73529 -10.0636,3.4158 -12.3349,1.14454 z"
         id="path122166" />
      <path
         style="fill:#ffd42a;fill-opacity:1;stroke:none;stroke-width:0;stroke-miterlimit:4;stroke-dasharray:none"
         d="m -3458.6253,-953.92683 c -2.3596,-1.85608 -2.8103,-2.89695 -2.2394,-5.17159 1.0011,-3.98858 2.3785,-5.37554 8.3375,-8.39522 6.6316,-3.36044 9.7469,-3.32871 13.8708,0.14124 2.9246,2.46091 3.177,3.12015 2.1911,5.7227 -1.8428,4.8643 -5.2953,7.65862 -10.9648,8.87452 -7.2574,1.55644 -7.799,1.49976 -11.1952,-1.17165 z"
         id="path122205" />
      <path
         style="fill:#ffd42a;fill-opacity:1;stroke:none;stroke-width:0;stroke-miterlimit:4;stroke-dasharray:none"
         d="m -3455.6918,-848.58421 c -1.948,-0.8467 -4.1171,-2.80184 -4.8201,-4.34476 -1.1539,-2.53266 -0.9156,-3.18249 2.4519,-6.68617 5.6197,-5.84702 9.1638,-7.33508 15.6428,-6.56802 6.6256,0.78442 8.4579,2.71781 7.0913,7.48276 -1.7078,5.95489 -8.851,11.79135 -14.3173,11.69831 -1.3787,-0.0235 -4.1006,-0.73542 -6.0486,-1.58212 z"
         id="path122244" />
      <path
         style="fill:#ffd42a;fill-opacity:1;stroke:none;stroke-width:0;stroke-miterlimit:4;stroke-dasharray:none"
         d="m -3467.5776,-743.32931 c -7.2723,-3.30205 -7.2606,-7.93958 0.033,-12.88952 4.2533,-2.88683 12.8512,-5.09206 16.3902,-4.20383 4.7349,1.18839 4.5339,4.43507 -0.6526,10.5383 -3.8205,4.49586 -9.2109,8.75965 -10.9162,8.63467 -0.1796,-0.0132 -2.3639,-0.949 -4.8539,-2.07962 z"
         id="path122283" />
      <path
         style="fill:#ffd42a;fill-opacity:1;stroke:none;stroke-width:0;stroke-miterlimit:4;stroke-dasharray:none"
         d="m -3574.5612,-742.5338 c -1.9825,-1.98247 -1.5767,-4.79988 1.1446,-7.94716 1.9141,-2.21383 4.008,-3.05991 9.5378,-3.854 10.3503,-1.48632 12.8351,-1.30657 15.2445,1.10274 1.8035,1.80358 1.9616,2.60831 0.9486,4.83149 -1.3951,3.06184 -4.4963,4.53536 -12.7993,6.08158 -7.7958,1.45175 -12.4812,1.3803 -14.0762,-0.21465 z"
         id="path122322" />
      <path
         style="fill:#ffd42a;fill-opacity:1;stroke:none;stroke-width:0;stroke-miterlimit:4;stroke-dasharray:none"
         d="m -3659.1563,-742.20443 c -2.0384,-2.25231 -2.0383,-2.33138 0,-4.63109 4.0634,-4.57824 10.5598,-8.56075 13.958,-8.55665 4.4661,0.005 10.7193,3.83842 10.2661,6.29281 -0.4408,2.38753 -12.0068,8.04273 -17.7798,8.69343 -3.4582,0.38979 -4.8072,0.0135 -6.447,-1.7985 z"
         id="path122361" />
      <path
         style="fill:#ffd42a;fill-opacity:1;stroke:none;stroke-width:0;stroke-miterlimit:4;stroke-dasharray:none"
         d="m -3763.6283,-740.1512 c -1.0491,-0.65058 -1.9075,-2.10132 -1.9075,-3.22385 0,-4.90532 18.7195,-15.97695 22.7536,-13.45761 0.9747,0.60872 2.4728,2.3399 3.329,3.84709 2.1109,3.71585 -0.078,9.04106 -4.6992,11.43062 -4.1145,2.12767 -16.8304,3.04419 -19.4759,1.40375 z"
         id="path122400" />
      <path
         style="fill:#ffd42a;fill-opacity:1;stroke:none;stroke-width:0;stroke-miterlimit:4;stroke-dasharray:none"
         d="m -3860.6416,-734.77284 c -1.2936,-0.75344 -1.9076,-2.46067 -1.9076,-5.30412 0,-3.46249 0.6953,-4.80357 3.9908,-7.69702 3.8385,-3.37022 4.2441,-3.4758 10.6279,-2.76623 3.6504,0.40575 7.7458,1.45581 9.1008,2.33346 2.2802,1.47681 2.3488,1.81675 0.9211,4.56088 -2.4996,4.80435 -6.7614,8.07946 -11.775,9.04869 -6.2118,1.20089 -8.6621,1.16161 -10.958,-0.17566 z"
         id="path122439" />
      <path
         style="fill:#ffd42a;fill-opacity:1;stroke:none;stroke-width:0;stroke-miterlimit:4;stroke-dasharray:none"
         d="m -3967.6409,-739.12931 c -3.2778,-3.89533 -3.5129,-6.07527 -1.0366,-9.61067 2.1405,-3.05592 12.2674,-7.7463 16.725,-7.7463 4.3507,0 8.5604,2.07542 9.3675,4.61831 0.8141,2.56513 -2.7997,6.74134 -8.2573,9.54227 -2.0983,1.0769 -4.7495,2.99124 -5.8916,4.25407 -3.066,3.39021 -7.5285,2.95748 -10.907,-1.05768 z"
         id="path122478" />
      <path
         style="fill:#ffd42a;fill-opacity:1;stroke:none;stroke-width:0;stroke-miterlimit:4;stroke-dasharray:none"
         d="m -4056.3453,-733.14472 c -0.9752,-1.74244 -1.6805,-1.82577 -6.3703,-0.75259 -9.8029,2.24323 -15.3803,-2.57551 -10.7057,-9.24948 2.5333,-3.61669 10.8948,-8.0909 15.3569,-8.21738 4.4489,-0.12611 8.0287,3.16058 8.0287,7.37142 0,3.22744 -2.1182,9.47763 -3.8398,11.32983 -1.1478,1.23495 -1.5534,1.15584 -2.4698,-0.4818 z"
         id="path122517" />
      <path
         style="fill:#ffd42a;fill-opacity:1;stroke:none;stroke-width:0;stroke-miterlimit:4;stroke-dasharray:none"
         d="m -4175.04,-740.34144 c -3.6346,-1.7572 -5.2847,-6.67611 -3.6022,-10.73807 1.7833,-4.3052 5.0197,-6.49681 9.5942,-6.49681 6.3636,0 12.6898,5.2637 10.5287,8.76041 -1.237,2.0015 -11.5614,9.77344 -12.881,9.69646 -0.6956,-0.0406 -2.3334,-0.59047 -3.6397,-1.22199 z"
         id="path122556" />
      <path
         style="fill:#ffd42a;fill-opacity:1;stroke:none;stroke-width:0;stroke-miterlimit:4;stroke-dasharray:none"
         d="m -4183.7666,-848.05707 c -2.9306,-1.18078 -4.9271,-4.68262 -4.019,-7.04924 0.942,-2.45461 10.9295,-7.31876 15.2809,-7.44211 2.379,-0.0674 4.5239,0.76489 6.3205,2.4527 2.6606,2.49945 2.6788,2.62461 0.8444,5.77952 -2.9734,5.11386 -6.5441,7.36494 -11.5598,7.28768 -2.4671,-0.038 -5.5573,-0.50085 -6.867,-1.02855 z"
         id="path122595" />
    </g>
    <text
       xml:space="preserve"
       style="font-style:normal;font-weight:normal;font-size:13.4056px;line-height:1.25;font-family:sans-serif;fill:#000000;fill-opacity:1;stroke:none;stroke-width:0.264583"
       x="58.001472"
       y="165.62416"
       id="text127075-7-7"><tspan
         sodipodi:role="line"
         id="tspan127073-1-2"
         x="58.001472"
         y="165.62416"
         style="font-style:normal;font-variant:normal;font-weight:normal;font-stretch:normal;font-size:13.4056px;font-family:Welcomehome3;-inkscape-font-specification:Welcomehome3;stroke-width:0.264583">contact us</tspan></text>
    <path
       style="fill:#ffffff;fill-opacity:1;stroke:none;stroke-width:0;stroke-miterlimit:4;stroke-dasharray:none"
       d="m 37.319129,179.57466 c -3.813572,-0.1878 -9.123654,-0.47839 -11.800205,-0.64572 l -4.866455,-0.30424 -0.314907,-1.18266 c -0.650478,-2.443 -1.168532,-12.16777 -1.168532,-21.9356 v -10.1074 l 0.917707,-0.20727 c 0.504719,-0.11399 5.262404,-0.39418 10.572618,-0.62262 6.923696,-0.29787 10.500439,-0.28782 12.643881,0.0355 2.069677,0.31224 14.655403,0.41045 40.920643,0.31935 50.413441,-0.17486 66.279901,-0.12988 87.793481,0.24892 18.01509,0.31719 18.04813,0.31936 18.04313,1.18187 -0.0311,5.36133 -3.21315,29.44998 -4.07437,30.84351 -0.62936,1.0183 -16.93262,1.97398 -38.33884,2.24732 -29.73342,0.37968 -103.487746,0.46593 -110.328151,0.12901 z m 27.415913,-11.75845 c 0.245639,0 1.338738,-2.48121 1.338738,-3.03874 0,-0.99227 -1.04386,-0.73914 -1.552125,0.37637 -0.616638,1.35339 -2.462715,1.81993 -3.201802,0.80917 -0.927312,-1.26817 -0.695351,-4.45627 0.418465,-5.75114 0.941917,-1.09508 0.993987,-1.10614 2.024962,-0.43064 1.280689,0.83916 2.3105,0.89641 2.3105,0.12849 0,-1.46053 -3.546951,-2.41388 -5.363606,-1.44161 -1.73527,0.92866 -2.594901,5.53318 -1.42621,7.63923 0.898842,1.61983 2.618978,2.4941 4.0817,2.0746 0.701358,-0.20114 1.317572,-0.36573 1.369378,-0.36573 z m 14.998356,-1.52951 c 0.142292,-1.28987 0.357134,-2.86594 0.47744,-3.50237 l 0.218731,-1.15715 1.034071,1.56501 c 1.182185,1.78922 4.198488,5.0319 4.680585,5.0319 0.177615,0 0.322924,-2.30772 0.322924,-5.12826 0,-4.66384 -0.06464,-5.11596 -0.713766,-4.99253 -0.581316,0.11054 -0.751602,0.70263 -0.917681,3.19087 l -0.203941,3.05517 -1.682962,-2.24327 c -0.925618,-1.2338 -1.89566,-2.65623 -2.155639,-3.16097 -0.686356,-1.33247 -1.589908,-1.13623 -1.877828,0.40785 -0.437515,2.34643 -0.881062,7.82934 -0.69289,8.56523 0.100382,0.39259 0.423201,0.71376 0.717391,0.71376 0.34925,0 0.624655,-0.81388 0.793565,-2.34524 z m 19.767285,1.37353 c 0.424841,-1.11741 2.682317,-2.86527 3.248637,-2.51526 0.20949,0.12946 0.59205,0.87524 0.85016,1.65725 0.43365,1.31402 1.31132,1.85893 1.77794,1.10392 0.10808,-0.17489 -0.32731,-1.87264 -0.96755,-3.77277 -0.64027,-1.90016 -1.26688,-3.93933 -1.39253,-4.53147 -0.27332,-1.28818 -1.38525,-1.82314 -2.1662,-1.04219 -0.73906,0.73906 -2.963701,7.43 -2.963701,8.91381 0,1.4479 1.085956,1.57358 1.613244,0.18671 z m 13.801887,0.15598 c 0.32594,0 1.30423,-2.93815 1.09241,-3.28089 -0.37243,-0.60261 -1.41645,-0.46053 -1.41645,0.19275 0,0.82896 -1.14361,1.86454 -2.05907,1.86454 -0.42746,0 -1.07762,-0.45852 -1.44481,-1.01893 -0.84889,-1.29556 -0.48588,-4.19502 0.68218,-5.44878 0.76261,-0.81857 0.89596,-0.83611 2.00303,-0.26363 1.4873,0.76912 2.04229,0.77581 2.04229,0.0246 0,-0.91705 -1.66285,-1.85852 -3.28261,-1.85852 -2.2792,0 -3.36949,1.42611 -3.57658,4.67821 -0.14097,2.21379 -0.0272,2.80797 0.7457,3.89334 1.1166,1.56811 2.25446,2.03004 3.86376,1.5685 0.67358,-0.19319 1.28114,-0.35123 1.35015,-0.35123 z m 34.45438,-0.44202 c 0.54713,-0.67566 0.7021,-1.31117 0.52983,-2.17254 -0.43926,-2.19631 -1.27714,-2.99723 -3.70374,-3.54029 -1.61589,-0.3616 -2.23716,-0.68188 -2.15276,-1.10971 0.22119,-1.12109 1.38271,-1.51051 2.63615,-0.88382 0.63431,0.31716 1.29096,0.64373 1.4592,0.7257 0.50189,0.24453 0.34624,-1.34691 -0.18354,-1.87669 -0.7344,-0.73443 -4.00338,-0.61018 -4.88267,0.18558 -0.41024,0.37124 -0.74589,1.19296 -0.74589,1.826 0,1.31387 1.05204,2.1536 3.26295,2.60437 1.81626,0.37034 2.44718,0.88614 2.44718,2.00065 0,2.1487 -2.14743,2.48716 -3.71107,0.58491 -0.61505,-0.74829 -1.25701,-1.16768 -1.52948,-0.99928 -0.78176,0.48316 -0.53162,1.55964 0.65207,2.80604 1.00933,1.06281 1.32318,1.16218 3.13502,0.99259 1.47378,-0.13796 2.2207,-0.44445 2.78675,-1.14351 z m -73.080163,0.21855 c 3.054614,-1.57959 2.438664,-7.40463 -1.008274,-9.53495 -4.221824,-2.60924 -7.901649,3.05861 -4.908392,7.5602 0.580152,0.87255 1.349402,1.81584 1.70942,2.09625 0.891196,0.69416 2.732802,0.64098 4.207246,-0.1215 z m 63.171303,-0.17402 c 1.10279,-1.10278 1.29019,-2.10105 1.15039,-6.12838 -0.0957,-2.75627 -0.24575,-3.46686 -0.73216,-3.46686 -0.48657,0 -0.65355,0.79306 -0.81574,3.87471 -0.22119,4.20262 -0.4537,4.89442 -1.64507,4.89442 -1.27048,0 -2.02573,-2.0453 -2.02573,-5.48595 0,-2.80736 -0.072,-3.07927 -0.81574,-3.07927 -0.74829,0 -0.81573,0.27191 -0.81573,3.28975 0,1.80938 0.20648,3.69067 0.45884,4.18065 1.38059,2.68058 3.64963,3.51224 5.24094,1.92093 z m -44.931563,-4.08987 -0.127424,-4.48739 h 1.763342 c 1.459574,0 1.739874,-0.1221 1.627135,-0.71292 -0.112633,-0.59039 -0.66339,-0.73483 -3.18606,-0.83558 -3.575843,-0.14277 -4.894897,0.11197 -4.894897,0.94533 0,0.43278 0.462518,0.60402 1.631474,0.60402 h 1.631473 v 4.48654 c 0,4.25987 0.04249,4.48656 0.841164,4.48656 0.806423,0 0.835924,-0.1855 0.713793,-4.48738 z m 27.811493,0 v -4.48654 h 1.63147 c 1.35956,0 1.63148,-0.13597 1.63148,-0.81574 0,-0.75113 -0.27192,-0.81574 -3.43353,-0.81574 -3.78216,0 -4.72382,0.21196 -4.72382,1.06331 0,0.39095 0.50888,0.56817 1.63148,0.56817 h 1.63144 l 0.004,2.95703 c 0.006,3.93203 0.37613,6.01605 1.06855,6.01605 0.43884,0 0.55843,-0.96097 0.55843,-4.48654 z"
       id="path136865" />
    <path
       style="fill:#ffffff;fill-opacity:1;stroke:none;stroke-width:0;stroke-miterlimit:4;stroke-dasharray:none"
       d="m 5.472318,149.6451 c -1.1554883,-1.15546 -0.9624218,-2.54889 0.5646738,-4.07601 0.6984471,-0.69842 1.5334721,-1.2599 1.873832,-1.2599 0.7214659,0 2.7933652,1.7811 3.0025972,2.58115 0.203862,0.77954 -0.493077,1.64981 -1.8931463,2.36408 -2.1665671,1.10529 -2.7671977,1.17144 -3.5479567,0.39068 z"
       id="path136904" />
    <path
       style="fill:#ffffff;fill-opacity:1;stroke:none;stroke-width:0;stroke-miterlimit:4;stroke-dasharray:none"
       d="m 20.120313,133.86892 c -0.849419,-0.84944 0.03291,-2.69941 1.698228,-3.56058 0.744643,-0.38504 0.933794,-0.3856 1.670023,-0.005 0.895774,0.46323 1.188562,0.96946 1.188562,2.05502 0,0.52167 -0.195157,0.73342 -0.793115,0.86058 -0.436219,0.0928 -1.137603,0.35483 -1.558634,0.58232 -0.933503,0.50443 -1.743393,0.52922 -2.205064,0.0675 z"
       id="path136943" />
    <path
       style="fill:#ffffff;fill-opacity:1;stroke:none;stroke-width:0;stroke-miterlimit:4;stroke-dasharray:none"
       d="m 49.335842,135.12921 c -0.934746,-0.10284 -2.052823,-0.97779 -2.318279,-1.81414 -0.441378,-1.3907 1.595385,-2.84935 3.978698,-2.84935 2.137199,0 2.992147,0.63661 2.52058,1.87693 -0.851059,2.23848 -2.028719,3.02339 -4.180999,2.78656 z"
       id="path136982" />
    <path
       style="fill:#ffffff;fill-opacity:1;stroke:none;stroke-width:0;stroke-miterlimit:4;stroke-dasharray:none"
       d="m 76.458544,133.48038 c -0.688393,-0.63799 -0.766445,-0.87439 -0.593328,-1.79723 0.427011,-2.27614 0.83095,-2.42658 4.184464,-1.55827 2.138125,0.55362 2.41099,1.00082 1.441503,2.36236 -1.292833,1.81562 -3.644423,2.27968 -5.032639,0.99314 z"
       id="path137021" />
    <path
       style="fill:#ffffff;fill-opacity:1;stroke:none;stroke-width:0;stroke-miterlimit:4;stroke-dasharray:none"
       d="m 104.34131,134.34284 c -1.31479,-0.92091 -0.54393,-3.31594 1.38901,-4.31548 0.9506,-0.4916 3.51335,-0.56746 4.33391,-0.1283 1.3104,0.7013 -0.0413,2.78403 -2.67013,4.11409 -1.78035,0.90077 -2.17641,0.94355 -3.05279,0.32969 z"
       id="path137060" />
    <path
       style="fill:#ffffff;fill-opacity:1;stroke:none;stroke-width:0;stroke-miterlimit:4;stroke-dasharray:none"
       d="m 134.12715,134.64579 c -0.63449,-0.22503 -1.38419,-0.6922 -1.666,-1.0382 -0.44683,-0.54856 -0.46127,-0.70681 -0.113,-1.23655 0.42944,-0.65321 0.85966,-0.90581 3.4613,-2.03219 1.52395,-0.65982 1.7562,-0.69016 2.4674,-0.32237 0.98176,0.50768 1.58284,1.72622 1.20227,2.43734 -0.15105,0.28221 -0.80092,0.98859 -1.4442,1.56975 -1.29136,1.16668 -2.03751,1.28548 -3.90777,0.62222 z"
       id="path137099" />
    <path
       style="fill:#ffffff;fill-opacity:1;stroke:none;stroke-width:0;stroke-miterlimit:4;stroke-dasharray:none"
       d="m 159.14636,134.94051 c -0.94157,-0.68167 -0.82655,-1.75916 0.30891,-2.89465 1.12215,-1.12215 2.68705,-1.52442 3.92903,-1.00996 2.99717,1.24147 1.78126,3.77864 -2.01258,4.19951 -1.20753,0.13396 -1.72831,0.065 -2.22536,-0.2949 z"
       id="path137138" />
    <path
       style="fill:#ffffff;fill-opacity:1;stroke:none;stroke-width:0;stroke-miterlimit:4;stroke-dasharray:none"
       d="m 184.06607,134.55279 c -1.04402,-1.15361 -0.0748,-2.95389 2.12407,-3.94544 1.0495,-0.47326 1.39155,-0.498 2.80032,-0.20251 1.60544,0.33676 2.67365,0.99697 2.67365,1.65248 0,0.77285 -1.52043,1.80848 -3.52915,2.40384 -2.55757,0.75806 -3.44765,0.77809 -4.06889,0.0916 z"
       id="path137177" />
    <path
       style="fill:#ffffff;fill-opacity:1;stroke:none;stroke-width:0;stroke-miterlimit:4;stroke-dasharray:none"
       d="m 197.58032,150.65843 c -0.48958,-0.541 -0.49175,-0.64159 -0.0396,-1.8256 0.26321,-0.68919 0.85405,-1.61282 1.31299,-2.05253 0.80939,-0.77542 0.88067,-0.78955 2.37049,-0.47004 1.69812,0.36418 2.84136,0.9887 2.84136,1.55213 0,0.39502 -1.71009,2.11505 -2.87613,2.89287 -1.01121,0.67453 -2.95833,0.62228 -3.60913,-0.0968 z"
       id="path137216" />
    <path
       style="fill:#ffffff;fill-opacity:1;stroke:none;stroke-width:0;stroke-miterlimit:4;stroke-dasharray:none"
       d="m 196.49492,178.02722 c -0.34266,-0.19796 -0.50472,-0.64778 -0.50472,-1.40102 0,-0.90028 0.18457,-1.27146 0.97909,-1.96906 1.13009,-0.99224 3.4086,-1.9445 4.05715,-1.69563 0.65434,0.25108 0.55938,1.98196 -0.1588,2.89501 -0.33126,0.42111 -1.01262,0.97587 -1.51413,1.23275 -0.50152,0.25691 -0.97674,0.56126 -1.05606,0.67638 -0.27705,0.40209 -1.30191,0.55081 -1.80253,0.26157 z"
       id="path137255" />
    <path
       style="fill:#ffffff;fill-opacity:1;stroke:none;stroke-width:0;stroke-miterlimit:4;stroke-dasharray:none"
       d="m 179.76738,192.4804 c -0.43622,-0.34436 -0.79311,-0.79386 -0.79311,-0.99888 0,-1.02997 2.81881,-3.33462 4.07857,-3.33462 0.34603,0 1.44426,0.4768 2.44047,1.05957 2.17717,1.2736 2.12428,1.66254 -0.38899,2.86131 -2.2723,1.08381 -4.28916,1.23976 -5.33694,0.41262 z"
       id="path137294" />
    <path
       style="fill:#ffffff;fill-opacity:1;stroke:none;stroke-width:0;stroke-miterlimit:4;stroke-dasharray:none"
       d="m 156.68886,191.72187 c -0.37571,-0.37571 -0.22238,-1.47728 0.29446,-2.11524 0.45606,-0.56296 1.47211,-0.9542 3.53721,-1.36205 1.03817,-0.20503 2.40803,0.89762 2.01875,1.62502 -0.56582,1.05719 -5.18351,2.5192 -5.85042,1.85227 z"
       id="path137333" />
    <path
       style="fill:#ffffff;fill-opacity:1;stroke:none;stroke-width:0;stroke-miterlimit:4;stroke-dasharray:none"
       d="m 129.58476,193.75006 c -1.33839,-0.7261 -0.85706,-2.5122 0.92538,-3.43395 1.67428,-0.8658 3.42937,-1.06916 5.08175,-0.58881 0.84378,0.24533 1.62792,0.59772 1.74254,0.78317 0.27345,0.44244 -1.5771,2.03369 -3.45109,2.96757 -1.63682,0.81566 -3.12314,0.90969 -4.29858,0.27202 z"
       id="path137372" />
    <path
       style="fill:#ffffff;fill-opacity:1;stroke:none;stroke-width:0;stroke-miterlimit:4;stroke-dasharray:none"
       d="m 103.84956,193.73463 c -0.69048,-0.69048 -0.44895,-2.09846 0.47821,-2.78754 0.94538,-0.70263 3.50898,-1.00942 4.12977,-0.49419 0.50803,0.42164 0.56544,1.52416 0.12248,2.35185 -0.66268,1.23825 -3.8045,1.85584 -4.73046,0.92988 z"
       id="path137411" />
    <path
       style="fill:#ffffff;fill-opacity:1;stroke:none;stroke-width:0;stroke-miterlimit:4;stroke-dasharray:none"
       d="m 77.264465,193.64007 c -1.495769,-0.63453 -1.029124,-2.21904 1.109821,-3.76846 1.861291,-1.34832 4.598485,-0.94959 5.020363,0.73133 0.282046,1.12382 -0.04786,1.55885 -1.754611,2.31365 -1.86309,0.82397 -3.500517,1.09469 -4.375573,0.72348 z"
       id="path137450" />
    <path
       style="fill:#ffffff;fill-opacity:1;stroke:none;stroke-width:0;stroke-miterlimit:4;stroke-dasharray:none"
       d="m 48.738148,193.5376 c -1.080055,-0.92901 -0.754618,-1.70739 1.10027,-2.63171 1.695053,-0.84468 2.976801,-0.9403 3.90353,-0.2912 0.867887,0.60788 0.806424,1.23775 -0.245242,2.51359 -0.822457,0.9978 -0.997611,1.07514 -2.435357,1.07514 -1.202373,0 -1.722411,-0.14904 -2.323201,-0.66582 z"
       id="path137489" />
    <path
       style="fill:#ffffff;fill-opacity:1;stroke:none;stroke-width:0;stroke-miterlimit:4;stroke-dasharray:none"
       d="m 20.423155,193.32921 c -0.9094,-0.36552 -0.878417,-1.80658 0.05898,-2.74397 0.841799,-0.8418 1.359932,-0.8714 2.897161,-0.16549 3.221488,1.47931 2.627868,3.10253 -1.153609,3.15446 -0.634498,0.009 -1.445631,-0.10154 -1.802527,-0.245 z"
       id="path137528" />
    <path
       style="fill:#ffffff;fill-opacity:1;stroke:none;stroke-width:0;stroke-miterlimit:4;stroke-dasharray:none"
       d="m 4.7197637,178.51072 c -1.0115021,-0.5043 -1.3288169,-1.73969 -0.6441546,-2.50794 1.1736123,-1.31688 3.9557325,-1.86483 4.8628035,-0.95776 0.8331993,0.83323 0.4333346,2.39935 -0.7791185,3.05155 -1.0546557,0.56731 -2.7281188,0.76882 -3.4395304,0.41415 z"
       id="path137567" />
    <path
       style="fill:#ffffff;fill-opacity:1;stroke:none;stroke-width:0;stroke-miterlimit:4;stroke-dasharray:none"
       d="m 5.472318,149.6451 c -1.1554883,-1.15546 -0.9624218,-2.54889 0.5646738,-4.07601 0.6984471,-0.69842 1.5334721,-1.2599 1.873832,-1.2599 0.7214659,0 2.7933652,1.7811 3.0025972,2.58115 0.203862,0.77954 -0.493077,1.64981 -1.8931463,2.36408 -2.1665671,1.10529 -2.7671977,1.17144 -3.5479567,0.39068 z"
       id="path137606" />
  </g>
</svg>
