<?xml version="1.0" encoding="UTF-8" standalone="no"?>
<!-- Created with Inkscape (http://www.inkscape.org/) -->

<svg
   xmlns:dc="http://purl.org/dc/elements/1.1/"
   xmlns:cc="http://creativecommons.org/ns#"
   xmlns:rdf="http://www.w3.org/1999/02/22-rdf-syntax-ns#"
   xmlns:svg="http://www.w3.org/2000/svg"
   xmlns="http://www.w3.org/2000/svg"
   xmlns:sodipodi="http://sodipodi.sourceforge.net/DTD/sodipodi-0.dtd"
   xmlns:inkscape="http://www.inkscape.org/namespaces/inkscape"
   width="32.513103mm"
   height="29.999996mm"
   viewBox="0 0 32.513103 29.999996"
   version="1.1"
   id="svg4915"
   inkscape:version="0.92.3 (2405546, 2018-03-11)"
   sodipodi:docname="fb_logo.svg">
  <defs
     id="defs4909" />
  <sodipodi:namedview
     id="base"
     pagecolor="#ffffff"
     bordercolor="#666666"
     borderopacity="1.0"
     inkscape:pageopacity="0.0"
     inkscape:pageshadow="2"
     inkscape:zoom="0.35"
     inkscape:cx="233.68623"
     inkscape:cy="-253.74843"
     inkscape:document-units="mm"
     inkscape:current-layer="layer1"
     showgrid="false"
     fit-margin-top="0"
     fit-margin-left="0"
     fit-margin-right="0"
     fit-margin-bottom="0"
     inkscape:window-width="1920"
     inkscape:window-height="1137"
     inkscape:window-x="-8"
     inkscape:window-y="-8"
     inkscape:window-maximized="1" />
  <metadata
     id="metadata4912">
    <rdf:RDF>
      <cc:Work
         rdf:about="">
        <dc:format>image/svg+xml</dc:format>
        <dc:type
           rdf:resource="http://purl.org/dc/dcmitype/StillImage" />
        <dc:title></dc:title>
      </cc:Work>
    </rdf:RDF>
  </metadata>
  <g
     inkscape:label="Layer 1"
     inkscape:groupmode="layer"
     id="layer1"
     transform="translate(-44.003852,-51.695733)">
    <path
       style="fill:#000000;stroke-width:0.66960168"
       d="m 47.59414,81.573159 c -3.01532,-0.617934 -3.447668,-2.418303 -3.56711,-14.854413 -0.127539,-13.264869 0.08833,-13.845347 5.520356,-14.841852 2.70664,-0.496562 14.721575,0.08248 22.211596,1.07057 4.30894,0.568416 4.713739,1.679486 4.756505,13.055896 0.04801,12.801741 -1.028758,14.202276 -10.993005,14.296737 l -5.691625,0.05386 -0.597504,-3.090067 c -0.763061,-3.94618 -0.130301,-6.619115 1.566861,-6.619115 1.333622,0 4.230485,-0.874581 3.383064,-2.726235 -0.14244,-0.310966 -1.054617,-0.62178 -2.343609,-0.62178 -2.035061,0 -2.343599,-0.214207 -2.343599,-1.626175 0,-1.939385 1.481416,-3.572768 3.758796,-4.144326 2.508267,-0.629541 1.474166,-1.9419 -1.451157,-1.841673 -3.100178,0.106318 -5.655654,2.641246 -5.655654,5.610375 0,1.688264 -0.305255,1.998407 -2.343599,2.380761 -1.901626,0.356766 -2.385876,0.382137 -2.343609,1.321733 0.0621,1.380192 -0.159,1.958178 1.86532,1.958178 1.968842,0 2.830092,0.59966 2.873129,1.86532 0.02818,0.828618 -0.138582,2.089086 -0.0054,2.800993 0.406262,2.170195 0.75439,5.188159 -1.297371,5.346118 -2.08423,0.608656 -5.787386,0.915428 -7.302399,0.604982 z m 7.435508,-2.056075 c 0.164798,-0.276209 0.144369,-2.084111 -0.04552,-4.01759 -0.337887,-3.438011 -0.392769,-3.515414 -2.492313,-3.515414 -2.719862,0 -2.304605,-0.981158 -2.499488,-2.992733 0.263074,-2.253277 1.201283,-2.089281 2.881148,-2.36406 2.413068,-0.39472 2.605134,-0.122835 2.605134,-1.998234 0,-1.247528 0.711831,-2.794924 1.894723,-4.118771 1.558049,-1.743807 2.4206,-2.132317 4.854607,-2.186777 2.461014,0.415258 2.968338,0.430463 3.138132,1.94255 0.149615,1.685176 -0.168667,1.69235 -1.974163,2.534938 -3.554863,0.801925 -3.549585,4.200779 0.317122,3.634997 2.496399,0.322476 1.664552,1.79313 1.321831,3.334262 -0.214207,0.98505 -0.902791,1.536494 -2.090105,1.673992 -1.609843,0.186603 -1.802602,0.524132 -2.123929,3.720452 l 0.36406,3.39582 5.043454,0.119811 c 7.384018,0.175018 8.641506,-1.038057 9.166603,-7.579541 0.447337,-5.57306 -0.351239,-14.066241 -1.465961,-15.590726 -0.715104,-0.977962 -2.618963,-1.3191 -10.776891,-1.931192 -11.397305,-0.855083 -16.127105,-0.479882 -17.528117,1.390521 -0.759744,1.014257 -0.912892,3.449792 -0.739228,11.755513 0.263345,12.598014 0.594025,13.294618 6.309709,13.294618 1.946733,0 3.674447,-0.226074 3.839331,-0.502186 z"
       id="path4869"
       inkscape:connector-curvature="0"
       sodipodi:nodetypes="csccsccsssssccscsscccccccscsssccccccscssccssscc" />
  </g>
</svg>
