<?xml version="1.0" encoding="UTF-8" standalone="no"?>
<!-- Created with Inkscape (http://www.inkscape.org/) -->

<svg
   xmlns:dc="http://purl.org/dc/elements/1.1/"
   xmlns:cc="http://creativecommons.org/ns#"
   xmlns:rdf="http://www.w3.org/1999/02/22-rdf-syntax-ns#"
   xmlns:svg="http://www.w3.org/2000/svg"
   xmlns="http://www.w3.org/2000/svg"
   xmlns:sodipodi="http://sodipodi.sourceforge.net/DTD/sodipodi-0.dtd"
   xmlns:inkscape="http://www.inkscape.org/namespaces/inkscape"
   width="31.311337mm"
   height="30mm"
   viewBox="0 0 31.311337 30"
   version="1.1"
   id="svg4883"
   inkscape:version="0.92.3 (2405546, 2018-03-11)"
   sodipodi:docname="insta_logo.svg">
  <defs
     id="defs4877" />
  <sodipodi:namedview
     id="base"
     pagecolor="#ffffff"
     bordercolor="#666666"
     borderopacity="1.0"
     inkscape:pageopacity="0.0"
     inkscape:pageshadow="2"
     inkscape:zoom="0.35"
     inkscape:cx="674.38417"
     inkscape:cy="-60.862956"
     inkscape:document-units="mm"
     inkscape:current-layer="layer1"
     showgrid="false"
     fit-margin-top="0"
     fit-margin-left="0"
     fit-margin-right="0"
     fit-margin-bottom="0"
     inkscape:window-width="1920"
     inkscape:window-height="1137"
     inkscape:window-x="-8"
     inkscape:window-y="-8"
     inkscape:window-maximized="1" />
  <metadata
     id="metadata4880">
    <rdf:RDF>
      <cc:Work
         rdf:about="">
        <dc:format>image/svg+xml</dc:format>
        <dc:type
           rdf:resource="http://purl.org/dc/dcmitype/StillImage" />
        <dc:title></dc:title>
      </cc:Work>
    </rdf:RDF>
  </metadata>
  <g
     inkscape:label="Layer 1"
     inkscape:groupmode="layer"
     id="layer1"
     transform="translate(72.597478,-102.73001)">
    <g
       id="g4865"
       transform="matrix(2.5776296,0,0,2.5776296,47.982282,-225.81943)">
      <path
         inkscape:connector-curvature="0"
         id="path4815"
         d="m -39.350469,138.99542 c -0.06063,-0.0578 -1.241336,-0.16317 -2.623784,-0.23422 -4.473427,-0.22994 -4.7625,-0.60085 -4.7625,-6.1107 0,-3.79858 0.0056,-3.83484 0.68008,-4.36534 0.973314,-0.76561 2.463706,-0.90822 6.026662,-0.57665 3.63596,0.33836 4.818629,0.74276 5.228933,1.788 0.356882,0.90914 0.107745,5.97129 -0.364366,7.40346 -0.409327,1.24172 -1.759876,2.20048 -3.099673,2.20048 -0.53631,0 -1.024718,-0.0473 -1.085352,-0.10503 z m 3.064757,-1.06168 0.79375,-0.63491 0.09304,-3.47738 c 0.123775,-4.62611 0.01319,-4.8826 -2.297212,-5.32828 -0.970518,-0.18721 -3.040368,-0.3477 -4.599666,-0.35665 -3.758835,-0.0216 -3.930863,0.12896 -4.112278,3.5986 -0.07489,1.43234 0.0039,3.11123 0.187384,3.99515 0.47723,2.29843 0.943889,2.45722 8.215191,2.79532 0.627793,0.0292 1.181683,-0.16142 1.719791,-0.59185 z m -5.416489,-2.56741 c -0.861394,-0.34376 -1.056882,-0.69364 -1.061751,-1.9003 -0.0095,-2.34387 3.055521,-3.25873 4.106776,-1.22582 0.583423,1.12821 0.47243,1.80571 -0.434642,2.65304 -0.854663,0.79838 -1.501511,0.91561 -2.610383,0.47308 z m 2.232305,-0.59207 c 1.038079,-0.75906 0.360571,-2.76498 -1.078419,-3.19291 -0.832875,-0.24768 -1.778716,0.63164 -1.778716,1.65362 0,1.56872 1.621894,2.44252 2.857135,1.53929 z"
         style="fill:#000000;stroke-width:0.26458332" />
      <path
         inkscape:connector-curvature="0"
         id="path4815-7"
         d="m -39.393036,138.91676 c -0.06063,-0.0578 -1.241336,-0.16317 -2.623784,-0.23422 -4.473427,-0.22994 -4.7625,-0.60085 -4.7625,-6.1107 0,-3.79858 0.0056,-3.83484 0.68008,-4.36534 0.973314,-0.76561 2.463706,-0.90822 6.026662,-0.57665 3.63596,0.33836 4.818629,0.74276 5.228933,1.788 0.356882,0.90914 0.107745,5.97129 -0.364366,7.40346 -0.409327,1.24172 -1.759876,2.20048 -3.099673,2.20048 -0.53631,0 -1.024718,-0.0473 -1.085352,-0.10503 z m 3.064757,-1.06168 c 0.836317,-0.55625 0.582641,-1.1207 0.88679,-4.11229 0.06568,-4.6273 0.01319,-4.8826 -2.297212,-5.32828 -0.970518,-0.18721 -3.040368,-0.3477 -4.599666,-0.35665 -3.758835,-0.0216 -3.930863,0.12896 -4.112278,3.5986 -0.07489,1.43234 0.0039,3.11123 0.187384,3.99515 0.47723,2.29843 0.943889,2.45722 8.215191,2.79532 0.627793,0.0292 1.181683,-0.16142 1.719791,-0.59185 z m -5.416489,-2.56741 c -0.861394,-0.34376 -1.056882,-0.69364 -1.061751,-1.9003 -0.0095,-2.34387 3.055521,-3.25873 4.106776,-1.22582 0.583423,1.12821 0.47243,1.80571 -0.434642,2.65304 -0.854663,0.79838 -1.501511,0.91561 -2.610383,0.47308 z m 2.232305,-0.59207 c 1.038079,-0.75906 0.360571,-2.76498 -1.078419,-3.19291 -0.832875,-0.24768 -1.778716,0.63164 -1.778716,1.65362 0,1.56872 1.621894,2.44252 2.857135,1.53929 z"
         style="fill:#000000;stroke-width:0.26458332"
         sodipodi:nodetypes="ccsccccsccccccccccccccccsc" />
      <path
         sodipodi:nodetypes="cccccscss"
         inkscape:connector-curvature="0"
         id="path4815-7-9"
         d="m -37.943937,131.11767 c -0.265198,-0.10584 -0.325383,-0.21356 -0.326882,-0.58505 -0.0029,-0.72161 0.940707,-1.00327 1.264358,-0.3774 0.17962,0.34735 0.145448,0.55593 -0.133814,0.8168 -0.263126,0.2458 -0.462271,0.28189 -0.803662,0.14565 z m 0.645502,-0.26164 c 0.214133,-0.21114 0.169475,-0.68838 -0.273549,-0.82013 -0.210481,-0.022 -0.434861,0.16523 -0.434861,0.47987 0,0.48296 0.470813,0.57454 0.70841,0.34026 z"
         style="fill:#000000;stroke-width:0.08145761" />
    </g>
  </g>
</svg>
