<?xml version="1.0" encoding="UTF-8" standalone="no"?>
<!-- Created with Inkscape (http://www.inkscape.org/) -->

<svg
   xmlns:dc="http://purl.org/dc/elements/1.1/"
   xmlns:cc="http://creativecommons.org/ns#"
   xmlns:rdf="http://www.w3.org/1999/02/22-rdf-syntax-ns#"
   xmlns:svg="http://www.w3.org/2000/svg"
   xmlns="http://www.w3.org/2000/svg"
   xmlns:sodipodi="http://sodipodi.sourceforge.net/DTD/sodipodi-0.dtd"
   xmlns:inkscape="http://www.inkscape.org/namespaces/inkscape"
   width="205.77942mm"
   height="236.32605mm"
   viewBox="0 0 205.77942 236.32605"
   version="1.1"
   id="svg4287"
   inkscape:version="0.92.5 (2060ec1f9f, 2020-04-08)"
   sodipodi:docname="hex 3.svg">
  <defs
     id="defs4281">
    <clipPath
       clipPathUnits="userSpaceOnUse"
       id="clipPath2837">
      <rect
         style="opacity:1;fill:#ff0000;fill-opacity:1;stroke:#000000;stroke-width:1.74025702;stroke-linecap:square;stroke-linejoin:round;stroke-miterlimit:4;stroke-dasharray:none;stroke-opacity:1"
         id="rect2839"
         width="778.64832"
         height="396.21539"
         x="7261.2734"
         y="-2391.4961" />
    </clipPath>
  </defs>
  <sodipodi:namedview
     id="base"
     pagecolor="#ffffff"
     bordercolor="#666666"
     borderopacity="1.0"
     inkscape:pageopacity="0.0"
     inkscape:pageshadow="2"
     inkscape:zoom="0.34750233"
     inkscape:cx="388.87459"
     inkscape:cy="446.60059"
     inkscape:document-units="mm"
     inkscape:current-layer="layer1"
     showgrid="false"
     fit-margin-top="0"
     fit-margin-left="0"
     fit-margin-right="0"
     fit-margin-bottom="0"
     inkscape:window-width="1848"
     inkscape:window-height="1016"
     inkscape:window-x="72"
     inkscape:window-y="27"
     inkscape:window-maximized="1" />
  <metadata
     id="metadata4284">
    <rdf:RDF>
      <cc:Work
         rdf:about="">
        <dc:format>image/svg+xml</dc:format>
        <dc:type
           rdf:resource="http://purl.org/dc/dcmitype/StillImage" />
        <dc:title />
      </cc:Work>
    </rdf:RDF>
  </metadata>
  <g
     inkscape:label="Layer 1"
     inkscape:groupmode="layer"
     id="layer1"
     transform="translate(-2.9435974,-30.670353)">
    <path
       sodipodi:type="star"
       style="fill:none;stroke:#ffffff;stroke-width:14.00809479;stroke-miterlimit:4;stroke-dasharray:none"
       id="path113"
       sodipodi:sides="6"
       sodipodi:cx="87.730843"
       sodipodi:cy="137.79749"
       sodipodi:r1="121.26216"
       sodipodi:r2="60.631081"
       sodipodi:arg1="0.90824145"
       sodipodi:arg2="1.4318402"
       inkscape:flatsided="true"
       inkscape:rounded="0"
       inkscape:randomized="0"
       d="M 162.32322,233.40339 42.229891,250.19933 -32.362488,154.59343 13.138464,42.191582 133.23179,25.395639 207.82417,121.00154 Z"
       transform="matrix(0.8132424,0.63219917,-0.62844997,0.81809409,121.29344,-19.761565)"
       inkscape:transform-center-y="4.9452029e-06"
       inkscape:transform-center-x="1.510155e-06" />
    <rect
       style="fill:#ff0000;stroke:#ffffff;stroke-width:29.60339928;stroke-miterlimit:4;stroke-dasharray:none"
       id="rect5067"
       width="201.40245"
       height="12.578773"
       x="3.885443"
       y="142.57965"
       transform="rotate(-0.73668478)" />
    <g
       transform="matrix(0.26458333,0,0,0.26458333,-2435.3169,1782.7078)"
       id="g470">
      <path
         inkscape:connector-curvature="0"
         id="path292-13"
         d="m 9591.3695,-6621.8739 c -19.2806,8.0833 -34.6088,23.2906 -54.1623,30.8538 -16.6855,9.9397 -34.328,18.0883 -51.1752,27.7043 -42.1425,25.3918 -82.4005,53.7842 -124.4423,79.3556 -39.9413,24.353 -79.618,49.16 -118.7573,74.7503 -6.9416,3.7574 -13.0644,9.5638 -20.8946,10.9961 -6.4501,2.6977 -6.9201,10.5436 -6.2265,16.5059 1.2554,40.9775 -0.9903,81.9883 0.822,122.9671 1.0106,26.1161 3.444,52.1717 2.5142,78.3374 -0.6288,35.279 -1.1334,70.571 -0.2698,105.8439 -0.3847,41.3675 -3.212,83.0782 2.9043,124.1738 1.4783,8.0471 9.0255,12.4566 16.0377,15.137 69.064,31.0827 134.3353,69.6074 200.0107,107.1523 49.6049,29.8564 98.9809,60.1868 150.1215,87.3631 5.7444,2.9381 7.0248,11.2165 14.1933,11.8808 11.052,1.435 20.6186,-6.0888 30.3544,-10.0329 34.056,-17.5051 65.219,-39.897 98.594,-58.603 35.649,-20.5019 70.565,-42.2184 104.894,-64.8541 39.543,-25.6031 80.313,-49.2508 121.999,-71.1721 11.725,-6.6493 24.533,-13.0396 32.996,-23.7773 4.81,-10.7854 0.487,-22.728 1.834,-34.0134 -1.79,-136.0387 -3.607,-272.0786 -6.367,-408.1018 -9.994,-11.841 -25.325,-16.7574 -37.727,-25.4506 -112.155,-65.5922 -225.426,-129.3124 -340.0798,-190.431 -5.5022,-2.5033 -11.297,-5.9551 -17.1733,-6.5852 z m 5.955,28.8457 c 7.6928,3.7575 14.6867,8.8342 22.4793,12.4653 103.5768,57.7357 206.5248,116.6288 310.8038,173.0844 11.152,6.2611 23.265,11.1511 33.561,18.628 3.61,6.883 1.004,15.1214 1.723,22.5617 -1.929,46.1792 -3.37,92.4255 -0.957,138.6189 2.662,68.0909 2.526,136.2667 2.038,204.4073 -0.05,18.1837 0.26,36.449 0.762,54.5723 -33.789,22.3399 -72.107,36.7594 -105.7,59.531 -47.295,30.3668 -94.579,60.7945 -143.436,88.6165 -35.706,21.1847 -70.829,43.3341 -107.0065,63.7001 -98.8867,-57.5887 -195.9303,-118.4373 -296.8498,-172.4583 -22.7746,-11.5933 -47.2216,-20.5778 -69.2986,-33.0612 -0.6589,-6.0711 0.6611,-12.2522 -0.05,-18.3769 0.5276,-53.539 -1.7531,-107.0506 -3.4252,-160.5391 0.526,-40.8126 1.4586,-81.7496 -1.537,-122.4521 -0.956,-37.7734 0.6686,-75.5417 1.3911,-113.3038 77.0469,-46.2197 152.8312,-94.5291 228.5106,-142.9316 25.4859,-16.944 51.8019,-32.4323 79.5341,-45.4334 16.2546,-8.431 32.0436,-17.782 47.4572,-27.6291 z"
         style="fill:#000000;stroke-width:2.53593087" />
      <g
         transform="matrix(0.98433611,0,0,1,2070.2615,-4008.7177)"
         clip-path="url(#clipPath2837)"
         id="g2706">
        <path
           style="fill:#000000;stroke-width:2.55773735"
           d="m 7865.6562,-2118.1035 c -57.8286,0.7785 -115.2568,8.1726 -172.7845,13.2529 -83.5665,5.4132 -167.4676,5.7179 -251.2158,7.9913 -91.451,1.9325 -183.0105,4.5226 -274.4391,3.33 -28.7248,-1.5388 -57.5237,-2.1063 -86.2142,0.4003 -18.0205,1.3983 -36.1914,2.4289 -54.0221,5.1915 -6.5464,2.9298 -4.0572,12.1572 1.0586,15.2578 10.2963,7.7874 23.9705,3.7739 35.82,4.7826 34.1359,-0.668 68.3082,-1.3539 102.3154,1.2617 72.7852,1.2456 145.5636,-1.4169 218.3327,-2.609 102.8982,-2.3234 205.865,-3.3366 308.6681,-8.4879 32.2766,-3.282 64.3,-8.8599 96.7469,-8.6169 118.7102,-4.4346 237.6719,-3.4484 356.3219,-9.3442 8.3843,-1.1881 18.1496,-0.5989 25.1778,-5.8925 5.0376,-5.4435 -0.066,-15.4665 -7.593,-13.8936 -32.4388,-2.8973 -65.0616,-0.1349 -97.516,-1.9079 -66.8814,-0.9539 -133.7752,0 -200.6567,-0.7161 z"
           id="path298-0-7"
           inkscape:connector-curvature="0" />
        <path
           style="fill:#000000;stroke-width:2.53593087"
           d="m 8134.6016,-2273.8086 c -213.4002,1.0064 -426.7463,7.8732 -640.1365,8.704 -23.5452,-2.097 -47.032,2.4652 -70.5882,2.4995 -102.8693,4.5653 -205.8035,7.4 -308.7829,7.7592 -34.4617,0.7113 -69.0213,0.2556 -103.3948,2.8791 -5.7268,0.6046 -15.3299,1.8625 -14.8867,9.5488 1.0611,7.2495 9.0567,11.0614 15.8008,10.3653 36.7855,2.4983 73.667,-0.1454 110.4883,-0.164 199.0994,-4.2007 398.1936,-8.7067 597.3168,-11.6563 119.1786,-2.1691 238.4052,-3.5424 357.4979,-8.7192 20.1354,-1.3353 40.6701,-1.7706 60.2517,-6.9332 7.007,-2.6738 6.2153,-15.0308 -2.125,-14.2558 -0.4797,-0.013 -0.9611,-0.041 -1.4414,-0.027 z"
           id="path302-7-6"
           inkscape:connector-curvature="0" />
      </g>
    </g>
  </g>
</svg>
