<?xml version="1.0" encoding="UTF-8" standalone="no"?>
<!-- Created with Inkscape (http://www.inkscape.org/) -->

<svg
   xmlns:dc="http://purl.org/dc/elements/1.1/"
   xmlns:cc="http://creativecommons.org/ns#"
   xmlns:rdf="http://www.w3.org/1999/02/22-rdf-syntax-ns#"
   xmlns:svg="http://www.w3.org/2000/svg"
   xmlns="http://www.w3.org/2000/svg"
   xmlns:sodipodi="http://sodipodi.sourceforge.net/DTD/sodipodi-0.dtd"
   xmlns:inkscape="http://www.inkscape.org/namespaces/inkscape"
   width="209.15932mm"
   height="235.85829mm"
   viewBox="0 0 209.15932 235.85829"
   version="1.1"
   id="svg4167"
   inkscape:version="0.92.5 (2060ec1f9f, 2020-04-08)"
   sodipodi:docname="Hex 1.svg">
  <defs
     id="defs4161">
    <clipPath
       clipPathUnits="userSpaceOnUse"
       id="clipPath2817">
      <rect
         style="opacity:1;fill:#ff0000;fill-opacity:1;stroke:#000000;stroke-width:1.74025702;stroke-linecap:square;stroke-linejoin:round;stroke-miterlimit:4;stroke-dasharray:none;stroke-opacity:1"
         id="rect2819"
         width="778.64832"
         height="396.21539"
         x="7184.7144"
         y="-3051.1792" />
    </clipPath>
  </defs>
  <sodipodi:namedview
     id="base"
     pagecolor="#ffffff"
     bordercolor="#666666"
     borderopacity="1.0"
     inkscape:pageopacity="0.0"
     inkscape:pageshadow="2"
     inkscape:zoom="0.69500465"
     inkscape:cx="1064.6456"
     inkscape:cy="390.26956"
     inkscape:document-units="mm"
     inkscape:current-layer="layer1"
     showgrid="false"
     fit-margin-top="0"
     fit-margin-left="0"
     fit-margin-right="0"
     fit-margin-bottom="0"
     inkscape:window-width="1848"
     inkscape:window-height="1016"
     inkscape:window-x="72"
     inkscape:window-y="27"
     inkscape:window-maximized="1" />
  <metadata
     id="metadata4164">
    <rdf:RDF>
      <cc:Work
         rdf:about="">
        <dc:format>image/svg+xml</dc:format>
        <dc:type
           rdf:resource="http://purl.org/dc/dcmitype/StillImage" />
        <dc:title />
      </cc:Work>
    </rdf:RDF>
  </metadata>
  <g
     inkscape:label="Layer 1"
     inkscape:groupmode="layer"
     id="layer1"
     transform="translate(175.85414,44.676996)">
    <path
       sodipodi:type="star"
       style="fill:none;stroke:#ffffff;stroke-width:14.00809479;stroke-miterlimit:4;stroke-dasharray:none"
       id="path113"
       sodipodi:sides="6"
       sodipodi:cx="87.730843"
       sodipodi:cy="137.79749"
       sodipodi:r1="121.26216"
       sodipodi:r2="60.631081"
       sodipodi:arg1="0.90824145"
       sodipodi:arg2="1.4318402"
       inkscape:flatsided="true"
       inkscape:rounded="0"
       inkscape:randomized="0"
       d="M 162.32322,233.40339 42.229891,250.19933 -32.362488,154.59343 13.138464,42.191582 133.23179,25.395639 207.82417,121.00154 Z"
       transform="matrix(0.80455398,0.62544494,-0.6217358,0.80935384,-56.051237,-93.083335)"
       inkscape:transform-center-y="4.8963507e-06"
       inkscape:transform-center-x="-4.0474136e-06" />
    <rect
       style="fill:#ff0000;stroke:#ffffff;stroke-width:30.9450779;stroke-miterlimit:4;stroke-dasharray:none"
       id="rect4923"
       width="201.96423"
       height="8.952939"
       x="-173.47813"
       y="63.055691" />
    <g
       transform="matrix(0.26458333,0,0,0.26458333,-2110.1616,1713.5739)"
       id="g458">
      <path
         inkscape:connector-curvature="0"
         id="path294-3"
         d="m 7717.3172,-6645.3409 c -20.8768,2.9076 -37.4264,17.2357 -56.023,25.9046 -116.4472,64.8528 -232.2044,131.0377 -346.4203,199.7263 -5.0661,4.1462 -4.9172,11.5968 -2.3887,17.0586 1.8036,16.1312 1.0296,32.8907 1.9198,49.4139 0.779,65.3581 -2.6023,130.8366 1.5975,196.1007 1.3665,32.4944 -1.7807,64.7649 -2.944,97.1766 -0.3864,26.4061 2.6285,52.6937 3.9456,79.0239 0.4841,5.498 1.6334,12.672 8.3307,13.5622 3.8253,0.031 7.2678,0.2608 10.5254,2.6855 22.3184,12.023 42.2348,28.0636 65.1794,39.0565 38.5054,21.799 74.4376,47.9962 114.0526,67.9396 34.2164,17.6608 68.2598,35.6474 102.0672,54.0766 27.5388,14.9508 57.0693,27.9328 79.9996,49.691 114.8058,-63.5868 228.4044,-129.4238 344.2848,-191.0339 12.7364,-5.5574 24.1512,-14.9148 37.4086,-18.6497 6.9798,3.957 16.4434,-0.5111 17.8574,-8.4355 4.0579,-11.6975 1.5807,-24.3457 3.7662,-36.361 0.9836,-30.9682 0.878,-61.972 0.6969,-92.953 -1.1896,-72.3635 -5.0716,-144.7964 -2.7504,-217.1309 -0.6182,-32.2489 -1.5443,-64.6138 -0.6385,-96.7954 -2.3052,-11.8353 -15.7495,-15.0067 -24.4648,-20.75 -35.6316,-20.5311 -72.7733,-38.3349 -107.997,-59.5994 -56.7424,-32.9023 -112.043,-68.2841 -168.1716,-102.2322 -21.826,-14.3451 -43.7259,-28.7985 -66.9877,-40.6586 -3.656,-3.1786 -7.5894,-7.1237 -12.8457,-6.8164 z m 8.7246,36.582 c 39.6489,20.4372 75.9858,46.4401 114.4919,68.8647 30.3542,18.484 60.9605,36.5142 90.7571,55.884 26.5415,15.311 53.273,30.317 79.5313,46.0967 20.7774,11.1745 42.7521,20.5547 62.5322,33.3148 -2.7647,38.3273 -0.5055,77.2898 -0.9902,115.8555 -2.6737,83.004 5.8006,166.0008 2.6716,249.047 -0.9527,14.7327 0.6073,29.6936 -1.7849,44.2811 -2.0892,10.5835 -14.371,13.3231 -22.4824,17.6054 -29.5988,12.5523 -57.3743,29.0256 -85.5983,44.3524 -88.6788,49.0809 -176.8027,99.2764 -265.1107,149.0988 -49.138,-32.2264 -102.0095,-58.1243 -153.3804,-86.4865 -56.4874,-29.0127 -110.3237,-62.9055 -164.898,-95.1956 -12.6839,-7.8614 -25.1734,-16.0408 -37.3798,-24.6265 -3.9709,-43.198 -7.0854,-86.913 -2.4645,-130.0369 0.6529,-53.0777 -4.4199,-106.1228 -2.2024,-159.1369 -0.2259,-41.6078 2.0779,-83.3804 -2.5284,-124.8398 123.3193,-72.6829 249.2696,-140.7479 373.9707,-211 4.9551,2.3072 9.9102,4.6145 14.8652,6.9218 z"
         style="fill:#000000;stroke-width:2.53593087" />
      <g
         transform="translate(134.42121,-3364.1051)"
         clip-path="url(#clipPath2817)"
         id="g2698">
        <path
           style="fill:#000000;stroke-width:2.53593087"
           d="m 8194.8965,-2804.041 c -213.3996,1.0062 -426.7449,7.8736 -640.1345,8.704 -23.5452,-2.0999 -47.0318,2.4683 -70.5882,2.4995 -102.8693,4.566 -205.8035,7.4 -308.7829,7.7591 -34.4603,0.7128 -69.0189,0.2537 -103.3909,2.8792 -5.7272,0.6067 -15.3249,1.856 -14.8926,9.541 1.0556,7.2532 9.0543,11.0704 15.8008,10.373 36.7855,2.4982 73.667,-0.1445 110.4883,-0.1639 198.7668,-4.1919 397.5284,-8.6947 596.3189,-11.6394 119.5112,-2.1758 239.0707,-3.5463 358.4959,-8.7361 20.1365,-1.3366 40.6734,-1.7681 60.2555,-6.9352 7.0057,-2.6755 6.2094,-15.0299 -2.1289,-14.2539 -0.4797,-0.013 -0.9611,-0.041 -1.4414,-0.027 z"
           id="path302-7"
           inkscape:connector-curvature="0" />
        <path
           style="fill:#000000;stroke-width:2.53593087"
           d="m 8120.6113,-2952.0371 c -93.4307,3.693 -186.8495,7.1651 -280.3458,8.5752 -38.0799,1.066 -76.1516,0.2383 -114.1382,-1.4892 -77.6485,-1.6911 -155.3182,-2.5155 -232.9769,-3.3766 -111.2236,0.1339 -222.4816,2.4617 -333.5935,6.7115 -52.3358,1.632 -104.7249,0.7559 -157.051,2.3096 -8.1356,0.6547 -19.2734,-0.01 -23.086,8.9961 -3.1459,5.2879 -0.1986,13.3313 6.5489,13.375 12.8027,1.8797 25.852,0.3893 38.7458,1.1304 188.2337,0.8101 376.3491,-10.7062 564.5942,-6.7189 96.843,1.217 193.6834,4.1269 290.5407,2.3912 75.7909,-1.21 151.6351,-2.9353 227.2286,-7.8301 9.5652,-1.2645 19.6666,-1.9936 28.4629,-6.1484 5.8471,-3.7958 5.9489,-14.6255 -1.6777,-16.3828 -4.2566,-1.422 -8.801,-1.6332 -13.252,-1.543 z"
           id="path304-6"
           inkscape:connector-curvature="0" />
      </g>
    </g>
  </g>
</svg>
